<?xml version="1.0" encoding="UTF-8"?>
<svg id="Layer_1" data-name="Layer 1" xmlns="http://www.w3.org/2000/svg" viewBox="0 0 845.49 321.15">
  <defs>
    <style>
      .cls-1, .cls-2 {
        fill: #fff;
      }

      .cls-2 {
        font-family: Palatino-Italic, Palatino;
        font-style: italic;
        letter-spacing: .05em;
      }

      .cls-2, .cls-3, .cls-4 {
        font-size: 149px;
      }

      .cls-3 {
        fill: #ccc;
        font-family: Palatino-Roman, Palatino;
        letter-spacing: -.03em;
      }

      .cls-4 {
        fill: #fa4616;
        font-family: Palatino-Bold, Palatino;
        font-weight: 700;
      }
    </style>
  </defs>
  <g>
    <polyline class="cls-1" points="244.19 214.42 244.19 155.43 298.55 155.43 298.55 116.53 244.19 116.53 244.19 61.42 303.88 61.42 303.88 82.8 343.25 82.8 343.25 22.85 185.61 22.85 185.61 61.42 200.37 61.42 200.37 214.42 185.66 214.42 185.66 253.32 258.42 253.32 258.42 214.42 244.19 214.42"/>
    <path class="cls-1" d="M167.19,166.22V61.41h14.57V22.85H108.84V61.41h14.22v91.78c0,38.47-4.45,56.95-32.07,56.95s-32.07-18.49-32.07-56.95V61.41h14.11V22.85H0V61.41H14.46v104.81c0,22.89,0,41.64,10.8,58.49,12.07,19.07,33.97,31.2,65.73,31.2,56.2,0,76.2-29.29,76.2-89.69"/>
  </g>
  <text class="cls-4" transform="translate(346.25 126.27)"><tspan x="0" y="0">CV</tspan></text>
  <text class="cls-2" transform="translate(605.16 251.16)"><tspan x="0" y="0">Lab</tspan></text>
  <text class="cls-3" transform="translate(552.26 126.26)"><tspan x="0" y="0">med</tspan></text>
  <path class="cls-1" d="M244.19,214.42c11.62-.36,36.46-1.02,47.55-1.35,5.06-.33,10.08-3.68,12.17-7.98,0,0,6.75-16.73,6.75-16.73,.66-1.55,1.9-4.86,2.58-6.33,1.57-3.25,6.74-3.05,8.06,.36,.17,.53,.99,2.57,1.19,3.17,1.08,2.87,13.49,36.08,14.21,38.03,.34,.8,1.15,3.31,1.47,3.8,.32,.48,1.39,.43,1.65-.08,.08-.04,.28-1.06,.44-1.73,4.47-19.96,11.3-50.41,15.77-70.38,0,0,.12-.55,.12-.55,0,0,.06-.27,.06-.27,0,0,.03-.14,.03-.14,1.02-4.36,7.53-4.04,8.11,.37,.01,.18,.22,1.43,.25,1.67,3.86,27.11,14.26,93.47,17.08,117.28-.11-.16-.1-.1,0-.07,.09,.04,.25,.08,.33,.08,.05,0,.04,0,0,0-.09,.02-.2,.03-.53,.28-.2,.17-.46,.55-.49,.86,0,0,.03-.15,.03-.15,0,0,.13-.6,.13-.6l1.02-4.82c5.01-23.68,12.26-57.74,17.38-81.49,1.17-3.4,6.1-3.06,6.87,.42,4.18,13.34,14.06,45.04,18.32,58.74,0,0-4.56-.41-4.56-.41l14.68-28.13c1.23-2.06,3.64-3.84,6.01-4.39,2.06-.55,4.09-.5,6.14-.52,0,0,11.18-.11,11.18-.11,0,0,22.36-.22,22.36-.22l11.18-.11c1.6-.02,3.36,.08,4.86-.46,1.51-.43,2.8-1.43,3.96-2.44,1.91-1.48,3.71-3.26,4.64-5.52,.78-1.56,3.2-11.31,3.83-13.12,0,0,6.09-21.52,6.09-21.52,1.5-5.26,4.08-14.56,5.63-19.77,1.27-3.11,6.19-2.6,6.68,.8,.37,2.48,1.16,7.22,1.54,9.75,5.3,33.73,11.95,76.79,17.22,110.53,0,0,.43,2.72,.43,2.72,.19,1.4,2.5,1.59,2.98,.29,.04-.06,.13-.32,.2-.54l14.27-42.4s1.8-5.3,1.8-5.3c0,0,.9-2.65,.9-2.65,0,0,.22-.66,.22-.66,.2-1.04,1.43-1.72,2.42-1.33,.27,.1,.52,.26,.72,.47,.2,.21,.33,.5,.35,.55,1.63,3.34,3.32,6.65,5.06,9.94,2.63,4.88,5.29,9.79,8.55,14.27,.81,1.06,1.62,2.12,2.66,2.92,.3,.21,.67,.39,.77,.37h.02s.05,0,.05,0c17.5,.11,53.01,.49,70.52,.7,0,0-35.26,.45-35.26,.45,0,0-35.26,.35-35.26,.35-.66,.03-1.26-.32-1.73-.63-2.65-2.11-4.42-5.08-6.28-7.84-2.03-3.17-3.9-6.41-5.72-9.68-1.82-3.27-3.57-6.57-5.28-9.9-.08-.16-.05-.09-.01-.05,.03,.04,.09,.08,.14,.09,.15,.07,.32-.02,.4-.15,0,0,.03-.07,.02-.03,0,0-.05,.17-.05,.17,0,0-.21,.67-.21,.67-.51,1.65-2.02,6.27-2.55,7.99,0,0-13.73,42.58-13.73,42.58-.28,1.01-1.18,2.58-2.4,3.01-2.54,1.3-6.02-.22-6.5-3.09,0,0-.48-2.8-.48-2.8,0,0-1.84-11.03-1.84-11.03-4.93-29.37-11.71-69.99-16.58-99.29-.43-2.43-1.2-7.47-1.6-9.7,.06,.26,.31,.57,.54,.64,.37,.19,.97-.15,1.06-.58,0,0-.05,.16-.05,.16l-.09,.34c-3.03,10.92-8.11,29.32-11.19,40.43,0,0-2.98,10.78-2.98,10.78-.81,3.52-2.94,7.05-5.8,9.34-1.98,1.7-4.04,3.49-6.59,4.23-1.96,.7-4.18,.72-6.21,.72,0,0-11.19,.13-11.19,.13-9,.12-27.5,.3-36.29,.45-.8,.04-1.58,.14-2.25,.32-1.37,.37-2.21,.98-3.09,2.21l.18-.29c-1.91,3.68-15.85,30.5-17.4,33.49-5.21-16.8-15.08-48.25-20.19-64.83,.3,.86,1.31,1.28,2.09,.7,.23-.17,.43-.44,.52-.71,.06-.25,0,0-.01,.07-.2,.92-.64,2.96-.84,3.91-4.7,21.92-11.89,55.2-16.6,76.98,0,0-1.05,4.81-1.05,4.81,0,0-.13,.6-.13,.6-.04,.25-.15,.53-.25,.77-1.57,2.95-5.84,2.18-7.54-.26-4.88-30.08-12.6-89.6-16.85-119.27,0,0-.15-1.12-.15-1.12l-.08-.56c-.01-.13-.02-.08-.03-.12,0-.01,0-.04,0-.05-.09-.22-.39-.23-.6-.2-.09,.03-.15,.06-.19,.09-.02,.05-.07,.05-.08,.15-.16,.51-.6,2.59-.76,3.18-4.25,17.96-11.3,47.9-15.54,65.84,0,0-.52,2.19-.52,2.19-.21,.81-.28,1.69-.83,2.57-1.73,2.72-6.11,1.9-6.82-1.13-.3-.78-.85-2.4-1.14-3.18-1.83-5.13-12.87-36.11-14.73-41.41-.7-1.96-3.89-2.03-4.69-.04,0,0-.11,.26-.11,.26,0,0-.22,.52-.22,.52-.58,1.3-1.66,3.96-2.2,5.19,0,0-7.05,16.6-7.05,16.6-2.57,4.97-7.89,8.2-13.35,8.53-11.41,.19-36.09,.21-47.64,.28h0Z"/>
</svg>