<?xml version="1.0" encoding="UTF-8"?>
<svg id="Layer_1" data-name="Layer 1" xmlns="http://www.w3.org/2000/svg" viewBox="0 0 845.48 321.15">
  <defs>
    <style>
      .cls-1 {
        fill: #002f87;
      }

      .cls-2, .cls-3 {
        fill: #0021a5;
      }

      .cls-3 {
        font-family: Palatino-Italic, Palatino;
        font-style: italic;
        letter-spacing: .05em;
      }

      .cls-3, .cls-4, .cls-5 {
        font-size: 149px;
      }

      .cls-4 {
        fill: #b1b3b6;
        font-family: Palatino-Roman, Palatino;
        letter-spacing: -.03em;
      }

      .cls-6 {
        opacity: .7;
      }

      .cls-5 {
        fill: #fa4616;
        font-family: Palatino-Bold, Palatino;
        font-weight: 700;
      }
    </style>
  </defs>
  <g>
    <polyline class="cls-1" points="244.19 214.42 244.19 155.43 298.55 155.43 298.55 116.53 244.19 116.53 244.19 61.42 303.88 61.42 303.88 82.8 343.25 82.8 343.25 22.84 185.61 22.84 185.61 61.42 200.37 61.42 200.37 214.42 185.66 214.42 185.66 253.32 258.42 253.32 258.42 214.42 244.19 214.42"/>
    <path class="cls-1" d="M167.19,166.22V61.41h14.57V22.84H108.84V61.41h14.22v91.78c0,38.47-4.45,56.95-32.07,56.95s-32.07-18.49-32.07-56.95V61.41h14.11V22.84H0V61.41H14.46v104.81c0,22.89,0,41.64,10.8,58.49,12.07,19.07,33.97,31.2,65.73,31.2,56.2,0,76.2-29.29,76.2-89.69"/>
  </g>
  <text class="cls-5" transform="translate(346.25 126.26)"><tspan x="0" y="0">CV</tspan></text>
  <text class="cls-3" transform="translate(605.16 251.16)"><tspan x="0" y="0">Lab</tspan></text>
  <text class="cls-4" transform="translate(552.26 126.26)"><tspan x="0" y="0">med</tspan></text>
  <g class="cls-6">
    <path class="cls-2" d="M244.19,214.42l31.73-.84c5.27-.14,10.61-.22,15.84-.41,5.14-.39,10.01-3.49,12.31-8.07l-.02,.04,6.78-16.71,1.69-4.18,.42-1.04c.16-.37,.24-.65,.47-1.09,.41-.82,1.12-1.49,1.95-1.86,1.66-.75,3.76-.39,5.02,1.02,.15,.18,.28,.37,.42,.56,.11,.21,.22,.42,.32,.63l.39,1.06,.79,2.11,12.59,33.81,1.56,4.23,.78,2.12c.25,.65,.55,1.59,.72,1.77,.23,.3,.64,.46,1.08,.45,.44-.03,.82-.24,1.01-.55,.15-.16,.31-1.13,.48-1.81l.5-2.2,3.96-17.59,7.93-35.18,1.98-8.8,.99-4.4,.5-2.2,.12-.55,.06-.27,.03-.14,.07-.22c.15-.58,.51-1.15,.96-1.6,.95-.89,2.22-1.17,3.37-.96,.58,.12,1.15,.36,1.66,.74,.5,.4,.9,.94,1.12,1.54,.1,.27,.18,.65,.22,.85l.08,.56,.17,1.12,.33,2.23,1.32,8.92,5.27,35.69,10.35,71.4-.27-.73c-.09-.05,.4,.27,.73,.26,.08,0,.13,0,.14,0-.03,0-.07,0-.28,.16-.08,.07-.2,.21-.26,.35-.04,.07-.06,.15-.07,.23l.03-.15,.13-.6,1.02-4.82,2.05-9.63,4.1-19.26,8.2-38.52,2.05-9.63,.51-2.41,.26-1.2,.06-.3c.03-.13,0-.11,.13-.48,.18-.56,.55-1.09,1.04-1.44,.97-.69,2.11-.77,3.15-.31,.52,.23,1.01,.67,1.3,1.18,.08,.13,.14,.26,.19,.39,.06,.14,.11,.28,.11,.3l.09,.29,.74,2.35,5.89,18.79,11.71,37.6-3.62-.32,14.7-28.12h0c.04-.08,.09-.16,.13-.23,.63-.87,1.41-1.75,2.39-2.44,.97-.69,2.08-1.17,3.15-1.45,1.08-.28,2.13-.4,3.16-.45,1.04-.04,1.89-.03,2.85-.04l11.18-.11,22.36-.21,11.18-.11h1.4c.44-.02,.99-.01,1.31-.04,.78-.06,1.56-.21,2.31-.45,.75-.24,1.46-.57,2.13-.99,.33-.21,.65-.43,.95-.68l1.06-.88,1.07-.89c.35-.29,.63-.54,.93-.83,.58-.57,1.12-1.2,1.58-1.87,.47-.67,.87-1.38,1.19-2.13,.34-.76,.54-1.47,.8-2.42l3.03-10.77,6.06-21.53,3.03-10.77,1.52-5.38,.76-2.69,.09-.34,.05-.17c.04-.12,.09-.25,.14-.37,.21-.49,.57-.97,1.03-1.27,.92-.62,1.99-.7,2.95-.32,.48,.18,.95,.53,1.29,.98,.18,.22,.3,.48,.41,.73,.04,.13,.08,.26,.11,.39l.04,.19v.09s.23,1.38,.23,1.38l.44,2.76,.88,5.52,1.76,11.05,3.46,22.1,6.93,44.2,3.46,22.1,1.73,11.05,.43,2.72c.11,.56,.43,.99,.98,1.23,.52,.24,1.23,.25,1.73,0,.27-.11,.47-.3,.64-.51,.08-.11,.16-.22,.21-.37,.06-.09,.14-.35,.21-.56l14.22-42.42,1.79-5.3,.89-2.65,.22-.66,.06-.17c.02-.07,.08-.21,.14-.31,.12-.22,.3-.41,.51-.55,.43-.28,.95-.34,1.43-.17,.24,.09,.46,.23,.63,.42,.18,.19,.29,.44,.32,.5,1.64,3.34,3.33,6.65,5.08,9.93,1.75,3.28,3.56,6.53,5.51,9.68,.97,1.57,1.99,3.12,3.08,4.59,.55,.73,1.12,1.45,1.74,2.09,.31,.32,.63,.61,.96,.86,.32,.22,.69,.42,.87,.4h.04s.01,0,.01,0l35.26,.24,35.26,.32-35.26,.37-35.26,.29h.05c-.79,.03-1.24-.33-1.69-.6-.42-.31-.79-.64-1.14-.99-.69-.69-1.29-1.43-1.87-2.18-1.15-1.5-2.21-3.06-3.22-4.64-2.02-3.16-3.89-6.41-5.7-9.68-1.81-3.27-3.56-6.57-5.26-9.91-.08-.15-.06-.11-.05-.1,.01,.02,.03,.03,.05,.04,.04,.02,.05,.01,.09,0,.02,0,.03-.03,.04-.04,0,0,.02-.03,0,0l-.05,.17-.21,.67-.86,2.66-1.71,5.32-13.79,42.57c-.12,.37-.35,1.09-.74,1.6-.39,.52-.91,.98-1.5,1.24-1.17,.57-2.52,.56-3.69,.06-.6-.23-1.13-.66-1.56-1.17-.43-.52-.7-1.15-.82-1.78l-.47-2.79-1.83-11.03-3.66-22.07-7.33-44.13-3.66-22.07-1.81-11.04-.9-5.52-.45-2.76-.22-1.38v-.09s-.02,.02-.02,.02c0,.02,.01,.03,.02,.05,0,.05,.04,.08,.06,.13,.06,.08,.15,.13,.19,.15,.09,.03,.13,.04,.28-.04,.06-.05,.15-.13,.17-.2,0-.01,.01-.03,.01-.04l-.05,.16-.09,.34-.75,2.69-1.5,5.39-3,10.78-6,21.55-3,10.78c-.23,.85-.53,1.93-.96,2.88-.42,.97-.93,1.89-1.52,2.75-.59,.87-1.27,1.67-2.02,2.4-.36,.36-.78,.73-1.15,1.03l-1.07,.9-1.09,.91c-.42,.35-.86,.66-1.32,.95-.92,.58-1.9,1.03-2.93,1.37-1.03,.34-2.09,.54-3.17,.63-.61,.05-.99,.03-1.48,.04l-1.4,.02-11.19,.14-22.37,.28-11.19,.14c-.91,.02-1.92,0-2.74,.05-.83,.04-1.64,.15-2.36,.34-1.47,.39-2.48,1.12-3.39,2.42l.14-.23-14.61,28.16c-.5,.96-1.69,1.34-2.65,.84-.48-.25-.82-.68-.97-1.16l-11.73-37.59-5.83-18.81-.73-2.35-.09-.29c-.02-.08-.01-.03,0,.01l.06,.11c.09,.16,.26,.3,.4,.37,.29,.12,.5,.11,.81-.09,.15-.11,.28-.28,.33-.45,.04-.18-.01,.04-.02,.12l-.06,.3-.26,1.2-.52,2.41-2.08,9.62-8.31,38.49-4.15,19.25-2.08,9.62-1.04,4.81-.13,.6-.03,.15c-.05,.17-.11,.35-.18,.51-.14,.32-.39,.63-.62,.83-.51,.45-.97,.56-1.38,.67-.39,.07-.76,.09-1.09,.07-.66-.05-1.26-.2-1.85-.48-.58-.28-1.19-.68-1.68-1.41-.15-.22-.23-.45-.27-.69v-.03s-10.14-71.42-10.14-71.42l-4.97-35.73-1.24-8.93-.31-2.23-.16-1.12-.08-.56c-.03-.17-.04-.16-.05-.24-.04-.11-.1-.18-.18-.27-.1-.07-.23-.13-.38-.17-.32-.06-.66,.04-.82,.19-.06,.09-.15,.16-.18,.31l-.02,.05-.03,.14-.06,.27-.13,.55-.52,2.2-1.03,4.39-2.06,8.78-8.25,35.12-4.12,17.56-.52,2.2-.26,1.1c-.06,.28-.22,.93-.53,1.39-1.3,1.97-4.24,2.06-5.68,.24-.36-.43-.55-1.03-.65-1.31l-.38-1.06-.76-2.12-1.53-4.24-12.14-33.96-.76-2.12-.38-1.06-.19-.38c-.09-.11-.16-.24-.25-.35-.74-.87-2.15-1.16-3.24-.68-.54,.24-.99,.64-1.26,1.17-.14,.22-.29,.65-.43,.97l-.44,1.04-1.76,4.15-7.02,16.61h0s-.02,.04-.02,.04c-2.56,4.9-7.8,8.09-13.22,8.43-5.35,.11-10.59,.11-15.89,.18l-31.74,.21Z"/>
  </g>
</svg>