<?xml version="1.0" encoding="UTF-8"?>
<svg id="Layer_1" data-name="Layer 1" xmlns="http://www.w3.org/2000/svg" viewBox="0 0 603.47 562.57">
  <defs>
    <style>
      .cls-1 {
        fill: #002f87;
      }

      .cls-2 {
        fill: #0071bc;
      }

      .cls-3 {
        fill: #0021a5;
        font-family: Palatino-Italic, Palatino;
        font-style: italic;
        letter-spacing: .05em;
      }

      .cls-3, .cls-4, .cls-5 {
        font-size: 149px;
      }

      .cls-4 {
        fill: #818182;
        font-family: Palatino-Roman, Palatino;
        letter-spacing: -.03em;
      }

      .cls-5 {
        fill: #fa4616;
        font-family: Palatino-Bold, Palatino;
        font-weight: 700;
      }
    </style>
  </defs>
  <g>
    <polyline class="cls-1" points="374.3 191.58 374.3 132.58 428.66 132.58 428.66 93.68 374.3 93.68 374.3 38.57 433.99 38.57 433.99 59.96 473.36 59.96 473.36 0 315.72 0 315.72 38.57 330.48 38.57 330.48 191.58 315.77 191.58 315.77 230.48 388.53 230.48 388.53 191.58 374.3 191.58"/>
    <path class="cls-1" d="M297.3,143.37V38.56h14.57V0h-72.92V38.56h14.22v91.78c0,38.47-4.45,56.95-32.07,56.95s-32.07-18.49-32.07-56.95V38.56h14.11V0h-73.03V38.56h14.46v104.81c0,22.89,0,41.64,10.8,58.49,12.07,19.07,33.97,31.2,65.73,31.2,56.2,0,76.2-29.29,76.2-89.69"/>
  </g>
  <g>
    <path class="cls-2" d="M0,492.77c21.53-.58,49.01-1.16,70.5-1.53,0,0,2.71-.05,2.71-.05,4.28,.26,8.06-1.8,9.68-5.02,.83-2.32,5.13-12.87,5.9-14.91,0,0,.3-.74,.3-.74l.15-.37c.41-1.12,1.29-2.1,2.38-2.58,2.63-1.21,5.77,.3,6.52,3.19,0,0,.57,1.5,.57,1.5,1.49,4.06,9.81,25.7,11.13,29.26,0,0,.07,.19,.07,.19,0,.02,.03,.09,.03,.07l-.02-.05c-.1-.38-.68-.66-.9-.62-.26-.05-.81,.31-.92,.71-.05,.2,.02-.09,.04-.18,.12-.44,.39-1.88,.51-2.35,2.81-12.8,7.5-34.14,10.32-46.96,0,0,.34-1.57,.34-1.57l.09-.39,.04-.2c1.08-5.13,8.62-5.05,9.56,.14,.07,.31,.16,1.04,.22,1.37,3.15,20.57,9.45,63.05,12.6,84.05l-.58-1.54c-.39-.58-.7-.72-.89-.82-1.37-.63-3.27,.79-3.54,2.36,0,0,.02-.11,.02-.11l.09-.43c1.3-6.1,3.77-17.75,5.09-23.98,1.36-6.43,6.37-29.98,7.64-35.97,0,0,.18-.86,.18-.86l.05-.21c.16-.88,.91-2.31,1.8-2.87,2.67-2.02,6.65-.58,7.43,2.62,3,9.49,10,32.03,13.02,41.78,0,0-7.28-.65-7.28-.65,.03-.05,10.47-20,10.49-20.05,1.2-1.85,3.24-2.89,5.15-3.75,1.44-.64,3.38-.91,5.05-.84,9.99-.09,23.85-.21,33.82-.31,1.67,.01,3.01-1.34,4.22-2.34,1.44-1.1,2.06-2.93,2.48-4.62,0,0,1.04-3.62,1.04-3.62l8.28-28.93,.52-1.81,.26-.9,.13-.45c1.11-4.42,7.66-4.41,8.68,.09,3.01,18.84,10.38,67.98,13.32,87.41,0,0,.03,.23,.03,.23,.01,.08,.03,.18,.02,.12,0-.04-.03-.06-.05-.13-.06-.09-.13-.21-.22-.26-.17-.12-.22-.08-.3-.08-.06,.01-.29,.12-.37,.31-.02,.03-.06,.1-.04,.12l.14-.45c2.89-9.2,7.36-23.92,10.25-33.15,.54-1.53,1.19-4.61,2.18-5.93,2.32-3.16,6.09-4.61,9.86-4.95,0,0,46.69,.82,46.69,.82l46.69,.97c-13.25,.48-33.16,.95-46.69,1.21,0,0-46.69,.87-46.69,.87-1.65,.26-5.21,1.39-6.41,3.4-.24,.34-.33,.65-.45,1.08l-1.01,3.63c-2.7,9.37-6.72,24.28-9.4,33.62-.91,4.46-7.29,5.17-9.16,1.02-.23-.49-.37-1.1-.44-1.59,0,0-.64-3.71-.64-3.71-2.96-17.29-11.45-66.61-14.17-83.14,.43,2.69,4.19,2.93,4.98,.33,.02-.08,0,0,0,0l-.02,.06c-.05,.14-.31,1.17-.37,1.36,0,0-.5,1.81-.5,1.81l-7.95,29.04c-.35,1.44-1.15,4.15-1.53,5.56-.91,3.13-3.13,5.68-5.67,7.63-2.07,1.81-4.63,2.88-7.42,3.01l-3.8,.05-7.52,.1-15.05,.19-7.52,.1c-1.65,.02-1.46-.03-2.32,.29-.69,.28-1.48,.78-1.98,1.24l.81-1.06-10.38,20.04c-1.53,3.12-6.35,2.66-7.28-.65-2.78-8.88-9.87-31.51-12.51-40.11-.03-.05-.56-1.85-.58-1.88,0,0-.03-.09,0,0,1.19,3.31,5.47,2.54,6.09-.16-2.97,13.72-8,36.98-10.96,50.67,0,0-1.48,6.84-1.48,6.84l-.74,3.42-.09,.43c-.07,.34-.18,.68-.33,1-1.3,2.71-4.57,3.15-6.91,2-1.05-.41-2.71-1.96-2.81-3.46-2.79-20.4-8.64-62.63-11.31-82.59-.04-.5-.31-2.23-.37-2.78-.02-.13,0,.05,.01,.09,.62,1.97,2.82,1.4,3.11,.09-.73,3.07-2.02,8.38-2.77,11.51-2.31,9.59-7.3,30.41-9.57,39.77-.73,4.14-6.8,4.86-8.35,.72-.55-1.52-1.41-4.05-1.96-5.6,0,0-8.46-24.2-8.46-24.2-.11-.39-.68-1.91-.81-2.3,0-.05-.29-.17-.47-.09-.09,.03-.1,.07-.16,.13,0,0-.08,.18-.08,.18l-.16,.37-.32,.74c-.91,2-5.38,12.51-6.37,14.71-2.21,4.35-6.96,6.91-11.66,6.81-23.04-.39-51.5-.98-74.57-1.6H0Z"/>
    <text class="cls-3" transform="translate(363.15 492.58)"><tspan x="0" y="0">Lab</tspan></text>
  </g>
  <text class="cls-5" transform="translate(57.58 364.15)"><tspan x="0" y="0">CV</tspan></text>
  <text class="cls-4" transform="translate(263.59 364.15)"><tspan x="0" y="0">med</tspan></text>
</svg>