<?xml version="1.0" encoding="UTF-8"?>
<svg id="Layer_1" data-name="Layer 1" xmlns="http://www.w3.org/2000/svg" viewBox="0 0 603.47 601.2">
  <defs>
    <style>
      .cls-1 {
        fill: #f6d7c5;
      }

      .cls-2 {
        fill: #e9986a;
      }

      .cls-3, .cls-4 {
        fill: #fff;
      }

      .cls-5 {
        fill: #b9c3cf;
      }

      .cls-6 {
        fill: #3d5979;
      }

      .cls-7 {
        fill: #768aa1;
      }

      .cls-4 {
        font-family: Palatino-Italic, Palatino;
        font-style: italic;
        letter-spacing: .05em;
      }

      .cls-4, .cls-8, .cls-9 {
        font-size: 149px;
      }

      .cls-8 {
        fill: #ccc;
        font-family: Palatino-Roman, Palatino;
        letter-spacing: -.03em;
      }

      .cls-10 {
        opacity: .16;
      }

      .cls-9 {
        fill: #fa4616;
        font-family: Palatino-Bold, Palatino;
        font-weight: 700;
      }
    </style>
  </defs>
  <g class="cls-10">
    <path class="cls-2" d="M312.78,251.86c-2.93,0-5.87,.05-8.8-.02-2.71-.07-3.72-1.1-3.75-3.81-.05-4.52-.05-9.04,0-13.57,.03-2.73,1.04-3.75,3.76-3.77,5.79-.05,11.57-.05,17.36,0,2.77,.02,3.65,.74,3.81,3.44,.3,4.83,.27,9.66,0,14.5-.13,2.33-1.49,3.19-3.59,3.21-2.93,.04-5.87,0-8.8,0Zm-.18-5.6c2.39-.19,5.35,.92,6.77-.43,1.55-1.47,.34-4.49,.53-6.83,.03-.39-.03-.8,0-1.19,.14-1.25-.41-1.65-1.64-1.63-3.32,.06-6.66,.19-9.97-.04-2.36-.16-3.05,.61-2.81,2.88,.23,2.27-.71,5.29,.44,6.66,1.34,1.61,4.46,.24,6.68,.57Z"/>
    <path class="cls-6" d="M312.89,389.21c3.01,0,6.02,0,9.03,0,2.02,0,3.18,1,3.2,3,.05,4.99,.02,9.99-.03,14.98-.02,1.93-1.18,2.93-3.03,2.94-6.26,.05-12.52,.05-18.78,0-1.88-.02-2.95-1.2-2.98-3.04-.08-4.92-.09-9.83-.03-14.75,.03-2.06,1.17-3.17,3.34-3.14,3.09,.04,6.18,.01,9.27,.01Zm-.27,15.39c0,.06,0,.12,0,.18,1.74,0,3.49-.09,5.23,.03,1.6,.11,2.3-.33,2.17-2.07-.15-2.05-.13-4.13-.02-6.18,.08-1.52-.35-2.08-1.95-2.02-3.16,.12-6.35,.2-9.5-.02-2.41-.16-3.43,.47-3.08,3.03,.32,2.33-.99,5.49,.51,6.82,1.28,1.13,4.36,.23,6.64,.23Z"/>
    <path class="cls-6" d="M312.6,382.34c-2.94,0-5.88,.04-8.82-.01-2.49-.05-3.5-1-3.53-3.48-.07-4.69-.06-9.38,0-14.07,.04-2.43,1.08-3.51,3.53-3.54,5.96-.08,11.91-.08,17.87,0,2.47,.03,3.46,1.04,3.51,3.54,.09,4.69,.09,9.38-.01,14.07-.05,2.64-1,3.44-3.74,3.49-2.94,.05-5.88,.01-8.82,0Zm.29-15.57h-3.56c-3.82,0-3.87,0-3.8,3.86,.03,2.03-.91,4.8,.4,5.88,1.24,1.03,3.91,.42,5.95,.36,2.65-.07,6.39,1.19,7.66-.49,1.35-1.77,.34-5.3,.47-8.06,.06-1.3-.46-1.63-1.65-1.57-1.82,.08-3.64,.02-5.46,.02Z"/>
    <path class="cls-6" d="M312.67,289.96c3.02,0,6.04,.01,9.05,0,2.23-.01,3.42,1.04,3.43,3.31,.02,4.77,.03,9.54,.03,14.3,0,2.23-1.2,3.45-3.36,3.48-6.03,.07-12.07,.09-18.1,0-2.42-.04-3.44-1.18-3.47-3.62-.06-4.61-.06-9.22,0-13.83,.03-2.63,1.01-3.59,3.62-3.63,2.94-.04,5.88-.01,8.81,0Zm.5,5.45c-2.37,0-4.35,.05-6.33-.02-1.03-.04-1.38,.3-1.36,1.34,.06,2.45,.07,4.91,0,7.36-.04,1.18,.41,1.48,1.51,1.46,3.32-.05,6.66-.19,9.96,.04,2.49,.17,3.33-.6,3.05-3.08-.25-2.26,.72-5.35-.44-6.65-1.33-1.48-4.46-.24-6.4-.45Z"/>
    <path class="cls-2" d="M312.78,143.7c2.94,0,5.88,.04,8.82-.01,2.25-.04,3.43,1.01,3.56,3.23,.27,4.84,.27,9.68,.02,14.53-.11,2.23-1.3,3.25-3.54,3.24-5.96-.04-11.91-.03-17.87,0-2.26,.01-3.46-1.1-3.48-3.3-.05-4.77-.06-9.54,.03-14.31,.04-2.42,1.12-3.33,3.65-3.36,2.94-.03,5.88,0,8.82,0Zm-.16,15.65c1.9,0,3.81-.06,5.71,.02,1.26,.05,1.66-.44,1.63-1.66-.06-2.38-.06-4.77,.01-7.15,.04-1.27-.5-1.64-1.7-1.62-3.73,.05-7.46,.06-11.19,0-1.28-.02-1.65,.49-1.61,1.69,.07,2.38,.09,4.77,0,7.15-.04,1.28,.45,1.65,1.67,1.6,1.82-.08,3.65-.02,5.47-.02Z"/>
    <path class="cls-6" d="M312.77,338.83c-3.02,0-6.04-.02-9.06,0-2.28,.02-3.43-1.16-3.45-3.34-.06-4.77-.04-9.54,0-14.31,.01-2.18,1.12-3.43,3.37-3.44,6.12-.02,12.23-.03,18.35,.01,1.97,.01,3.15,1.07,3.17,3.1,.04,4.93,.04,9.86,0,14.78-.01,2.14-1.21,3.18-3.32,3.18-3.02,0-6.04,0-9.06,0Zm-.64-5.44c2.28,0,4.18-.07,6.08,.02,1.28,.06,1.87-.25,1.8-1.67-.11-2.29-.1-4.6,0-6.89,.06-1.42-.5-1.72-1.79-1.68-3.17,.08-6.34,.03-9.5,.03-3.2,0-3.22,0-3.19,3.31,.02,2.21-.73,5.17,.39,6.42,1.31,1.46,4.33,.26,6.22,.47Z"/>
    <path class="cls-2" d="M312.68,208.18c-2.93,0-5.87,.03-8.8,0-2.54-.03-3.58-.93-3.62-3.36-.08-4.76-.04-9.52,0-14.29,.02-2.09,1.18-3.32,3.24-3.34,6.11-.07,12.21-.05,18.32-.01,2.2,.01,3.35,1.22,3.36,3.44,0,4.76,0,9.52-.01,14.29,0,2.26-1.2,3.31-3.44,3.29-3.01-.02-6.03,0-9.04,0Zm.05-5.43c1.19,0,2.38,0,3.56,0,3.77,0,3.79,0,3.76-3.72-.01-2.05,.66-4.74-.37-5.98-1.21-1.45-4.01-.48-6.11-.47-2.65,.01-6.23-1.21-7.71,.52-1.54,1.8-.33,5.31-.44,8.07,0,.08,0,.16,0,.24-.12,1.03,.33,1.39,1.36,1.35,1.98-.06,3.96-.02,5.94-.02Z"/>
    <path class="cls-6" d="M341.62,312.16c-2.14,0-4.28-.05-6.41,.02-1.99,.06-2.94-.83-2.93-2.82,.02-3.41,0-6.81,0-10.22,0-1.85,.98-2.75,2.81-2.75,4.35,0,8.71,0,13.06,0,1.84,0,2.78,.84,2.76,2.75-.04,3.49-.02,6.97,0,10.46,0,1.79-.88,2.59-2.64,2.57-2.22-.02-4.43,0-6.65,0Zm-.06-11.62q-5.56,0-5.46,5.62c0,.08,0,.16,0,.24-.18,1.32,.32,1.84,1.71,1.79,2.38-.1,4.77-.13,7.14,0,1.65,.09,2.15-.41,2.15-2.1-.03-5.55,.04-5.55-5.54-5.55Z"/>
    <path class="cls-6" d="M341.78,329.13c2.14,0,4.29,.04,6.43-.01,1.94-.05,2.72,.88,2.7,2.76-.04,3.42-.05,6.84,0,10.25,.03,1.8-.87,2.72-2.55,2.75-4.45,.06-8.9,.05-13.34,0-1.79-.02-2.77-.95-2.76-2.84,.03-3.42,0-6.84,0-10.26,0-1.88,.93-2.73,2.82-2.68,2.22,.06,4.45,.01,6.67,.02Zm-.11,11.62q5.44,0,5.39-5.42c0-.24-.03-.48,0-.71,.13-1.14-.36-1.53-1.5-1.5-2.54,.06-5.08,.1-7.62-.01-1.49-.07-1.85,.46-1.87,1.9-.07,5.75-.12,5.75,5.6,5.75Z"/>
    <path class="cls-2" d="M341.74,231.08c2.06,0,4.13,.03,6.19,0,2.06-.03,3.11,.91,3.11,3,0,3.26-.02,6.51,0,9.77,.01,2.17-1.05,3.21-3.2,3.21-4.12,0-8.25,.02-12.37-.01-2.2-.02-3.32-1.05-3.23-3.41,.11-3.17,.04-6.35,.02-9.53-.01-2.08,.98-3.06,3.06-3.02,2.14,.04,4.28,0,6.43,0Zm-.22,11.79q5.7,0,5.51-5.79c0-.08,0-.16,0-.24,.15-1.22-.36-1.69-1.61-1.65-2.45,.07-4.91,.11-7.36-.01-1.61-.08-1.98,.53-1.99,2.04-.05,5.66-.1,5.66,5.45,5.66Z"/>
    <path class="cls-2" d="M341.54,181.68c-2.06,0-4.12-.02-6.18,0-2.04,.03-3.11-.88-3.1-2.99,.02-3.33,.04-6.66,0-10-.02-1.88,.92-2.89,2.69-2.92,4.52-.08,9.04-.07,13.55,0,1.4,.02,2.35,.77,2.37,2.4,.02,3.49,.11,6.98,.17,10.46,.04,2.08-1.03,3.05-3.08,3.03-2.14-.01-4.28,0-6.42,0Zm-.03-11.8q-5.56,0-5.42,5.65c0,.16,.02,.32,0,.47-.12,1.12,.37,1.54,1.5,1.52,2.53-.06,5.07-.09,7.6,.01,1.46,.06,1.86-.44,1.89-1.88,.1-5.78,.15-5.78-5.57-5.78Z"/>
    <path class="cls-7" d="M300.32,444.18c-.02-2.62-.09-5.24-.04-7.86,.05-2.64,1.02-3.56,3.64-3.57,5.87-.02,11.74-.02,17.61,0,2.62,0,3.56,.9,3.57,3.6,.02,4.21-.07,8.42-.12,12.62-1.68-.11-3.47,.33-4.92-.95-.03-2.69-.15-5.38-.05-8.07,.06-1.61-.56-2.04-2.06-1.97-2.05,.1-4.11-.03-6.16,.04-2.03,.07-4.6-.86-5.95,.4-1.27,1.18-.26,3.75-.46,5.7-1.69,.01-3.38,.03-5.07,.04Z"/>
    <path class="cls-6" d="M284.14,324.36c2.06,0,4.13,.05,6.19-.02,1.88-.06,2.82,.73,2.81,2.65-.02,3.49,0,6.99,0,10.48,0,1.65-.85,2.51-2.49,2.52-4.52,.02-9.05,.01-13.57,0-1.77,0-2.57-.91-2.55-2.68,.04-3.49,.02-6.99,0-10.48,0-1.66,.77-2.49,2.46-2.48,2.38,.02,4.76,0,7.14,0Zm-.43,11.62q5.66,0,5.6-5.63c0-.16-.02-.32,0-.47,.18-1.22-.28-1.67-1.56-1.62-2.37,.1-4.76,.16-7.12-.01-1.88-.14-2.37,.47-2.33,2.33,.11,5.41,.03,5.41,5.4,5.41Z"/>
    <path class="cls-2" d="M283.96,160.97c2.14,0,4.28-.02,6.42,0,1.82,.02,2.77,.91,2.75,2.8-.02,3.41-.03,6.82,.01,10.23,.02,1.86-.82,2.87-2.66,2.89-4.44,.03-8.87,.04-13.31,0-1.69-.01-2.64-.88-2.64-2.66,.01-3.49,.03-6.98,0-10.46-.01-1.9,.96-2.76,2.77-2.78,2.22-.02,4.44,0,6.65,0Zm-.06,4.13q-5.72,0-5.55,5.78c0,.08,.01,.16,0,.24-.16,1.23,.34,1.69,1.6,1.65,2.38-.08,4.77-.14,7.14,.02,1.78,.11,2.29-.44,2.27-2.24-.06-5.44,.02-5.44-5.46-5.44Z"/>
    <path class="cls-7" d="M341.6,433.63c-2.14,0-4.29-.05-6.43,.01-1.89,.05-2.84-.82-2.86-2.67-.04-3.5-.05-7-.04-10.49,0-1.76,.91-2.56,2.7-2.55,4.45,.04,8.9,.04,13.34,0,1.82-.02,2.66,.9,2.68,2.6,.04,3.5,.03,7-.02,10.49-.03,1.86-1.07,2.68-2.93,2.62-2.14-.06-4.29-.01-6.43-.01Zm.08-11.75c-1.35,0-2.7,.08-4.04-.02-1.61-.12-1.78,.94-1.49,1.96,.54,1.9-1.58,4.41,1.29,5.74,.26,.12,.63,.02,.94,.02,2.14,0,4.28-.11,6.41,.03,1.76,.12,2.32-.43,2.3-2.24-.06-5.49,.02-5.49-5.42-5.49Z"/>
    <path class="cls-7" d="M283.77,428.88c-2.14,0-4.28-.03-6.42,0-1.85,.03-2.82-.77-2.82-2.68,0-3.49,0-6.98-.03-10.47-.02-1.8,.85-2.63,2.6-2.64,4.44,0,8.88,0,13.32-.01,1.85,0,2.78,.84,2.76,2.75-.04,3.41-.06,6.82-.02,10.23,.02,2.07-1.06,2.83-2.96,2.82-2.14-.01-4.28,0-6.42,0Zm.08-11.75c-1.34,0-2.69-.03-4.03,0-2.59,.08-1.47,2.18-1.33,3.16,.2,1.47-1.65,3.95,1.31,4.33,2.49,.32,5.05-.02,7.57,.1,1.6,.08,1.96-.52,1.96-2.02,0-5.59,.06-5.59-5.49-5.59Z"/>
    <path class="cls-2" d="M283.97,259.03c2.14,0,4.28,.02,6.41,0,1.86-.02,2.78,.8,2.76,2.72-.03,3.49-.03,6.97,0,10.46,.01,1.69-.89,2.55-2.45,2.57-4.59,.06-9.19,.06-13.78,0-1.58-.02-2.41-.95-2.4-2.62,.04-3.49,.04-6.97,0-10.46-.02-1.95,.96-2.69,2.8-2.66,2.22,.04,4.43,0,6.65,0Zm-.15,11.57q5.59,0,5.48-5.56c0-.16-.02-.32,0-.47,.17-1.3-.49-1.61-1.67-1.58-2.45,.06-4.9,.11-7.35-.01-1.61-.08-1.96,.53-1.97,2.04-.02,5.59-.07,5.59,5.49,5.59Z"/>
    <path class="cls-6" d="M283.86,307.37c-2.14,0-4.29-.03-6.43,0-1.95,.04-2.95-.75-2.91-2.82,.06-3.42,.04-6.83,0-10.25-.01-1.78,.87-2.67,2.6-2.68,4.45-.03,8.89-.02,13.34,0,1.71,0,2.68,.81,2.67,2.61,0,3.5-.01,6.99,0,10.49,0,1.77-.82,2.65-2.6,2.64-2.22,0-4.45,0-6.67,0h0Zm.17-11.59c-6.22,0-6.19,0-5.71,6.27,.08,1.01,.35,1.39,1.38,1.37,2.37-.06,4.76-.14,7.12,.02,1.91,.13,2.59-.34,2.53-2.41-.14-5.25-.03-5.25-5.33-5.25Z"/>
    <path class="cls-2" d="M283.83,242c-2.22,0-4.45-.03-6.67,.01-1.78,.03-2.65-.76-2.64-2.56,.02-3.5,.02-6.99,0-10.49,0-1.79,.94-2.68,2.62-2.7,4.44-.05,8.89-.05,13.33,0,1.67,.02,2.66,.9,2.66,2.68,0,3.5,0,6.99,0,10.49,0,1.77-.84,2.61-2.64,2.58-2.22-.05-4.45-.01-6.67-.01Zm-.2-3.9c5.79,0,5.74,0,5.71-5.65,0-1.49-.34-2.15-1.97-2.05-2.22,.13-4.45,.15-6.66,0-1.87-.13-2.43,.46-2.39,2.36,.1,5.34,0,5.34,5.31,5.34Z"/>
    <path class="cls-6" d="M283.69,372.65c-2.22,0-4.45,0-6.67,0-1.66,0-2.49-.86-2.49-2.51,0-3.58,0-7.15,0-10.73,0-1.69,.91-2.49,2.52-2.49,4.53-.02,9.05-.02,13.58,0,1.63,0,2.49,.87,2.5,2.52,0,3.58,.01,7.15,0,10.73,0,1.65-.86,2.48-2.52,2.48-2.3,0-4.61,0-6.91,0Zm.17-4.04q5.51,0,5.44-5.59c0-.16-.02-.32,0-.48,.18-1.25-.36-1.66-1.6-1.62-2.37,.08-4.76,.12-7.13-.01-1.7-.1-2.32,.3-2.29,2.18,.1,5.52,0,5.52,5.57,5.52Z"/>
    <path class="cls-2" d="M341.56,279.57c-2.14,0-4.27-.02-6.41,0-1.83,.02-2.87-.81-2.88-2.68-.03-3.57-.03-7.13,0-10.7,.01-1.52,.83-2.36,2.37-2.37,4.59-.02,9.18-.02,13.77-.02,1.64,0,2.47,.82,2.46,2.5-.02,3.57-.01,7.13,0,10.7,0,1.8-.93,2.58-2.67,2.56-2.22-.02-4.43,0-6.65,0Zm0-3.93q5.5,0,5.47-5.44c0-.32-.03-.64,0-.95,.11-1.15-.44-1.53-1.54-1.5-2.3,.05-4.62,.14-6.91-.03-1.97-.14-2.58,.47-2.54,2.49,.11,5.43,.02,5.43,5.51,5.43Z"/>
    <path class="cls-2" d="M341.68,214.26c-2.22,0-4.44-.03-6.65,0-1.76,.03-2.72-.81-2.75-2.53-.05-3.57-.05-7.13,0-10.7,.02-1.7,.93-2.57,2.71-2.56,4.43,.04,8.87,.02,13.3,.01,1.78,0,2.6,.85,2.59,2.63-.03,3.49-.03,6.98,0,10.46,.02,1.94-.96,2.71-2.79,2.68-2.14-.03-4.28,0-6.41,0Zm-.3-3.99q5.85,0,5.65-5.91c0-.08,0-.16,0-.24,.14-1.22-.38-1.7-1.62-1.66-2.29,.06-4.59,.15-6.87-.02-2-.15-2.53,.55-2.49,2.51,.11,5.32,.02,5.32,5.33,5.32Z"/>
    <path class="cls-6" d="M341.64,377.42c-2.22,0-4.45-.04-6.67,.01-1.82,.05-2.66-.88-2.68-2.58-.04-3.49-.03-6.99-.01-10.49,0-1.73,.91-2.67,2.64-2.68,4.44-.02,8.89-.02,13.33,0,1.71,0,2.65,.81,2.63,2.63-.03,3.49-.03,6.99,0,10.49,.01,1.93-.95,2.69-2.82,2.63-2.14-.07-4.29-.02-6.43-.02Zm-.13-3.9q5.62,0,5.55-5.72c0-.16-.02-.32,0-.47,.17-1.24-.36-1.67-1.6-1.63-2.29,.07-4.59,.15-6.87-.02-1.93-.14-2.57,.42-2.53,2.44,.12,5.4,.03,5.4,5.45,5.4Z"/>
    <path class="cls-2" d="M283.85,193.73c2.22,0,4.43,.02,6.65,0,1.77-.02,2.64,.83,2.63,2.6,0,3.49,0,6.97,0,10.46,0,1.9-1.02,2.71-2.83,2.71-4.35,0-8.71,0-13.06,0-1.81,0-2.77-.84-2.74-2.77,.06-3.41,.05-6.81,0-10.22-.03-2.05,.96-2.84,2.93-2.78,2.14,.07,4.27,.01,6.41,.02Zm-.16,11.78c1.42,0,2.85,0,4.27,0,2.11-.02,1.47-1.75,1.25-2.59-.45-1.75,1.64-4.14-1.23-5.26-.34-.13-.78-.02-1.18-.02-1.98,0-3.97,.16-5.93-.04-2.19-.23-2.62,.64-2.57,2.66,.13,5.26,.03,5.27,5.38,5.26Z"/>
    <path class="cls-2" d="M325.01,123.19c.02,3.33,.07,6.66,.04,9.99-.02,2.66-.93,3.65-3.54,3.68-5.86,.06-11.72,.05-17.58,0-2.57-.02-3.53-1.06-3.6-3.67-.04-1.43,0-2.85,0-4.28,1.69,.01,3.38,.03,5.06,.04-.19,1.67,.23,2.42,2.23,2.57,3.64,.28,7.23-.38,10.84-.11,1.31,.1,1.56-.68,1.55-1.78-.02-2.13,.02-4.26,.03-6.38,1.65-.02,3.3-.04,4.95-.06Z"/>
    <path class="cls-1" d="M325.01,123.19c-1.65,.02-3.3,.04-4.96,.06-.24-1.05-.23-2.12-1.92-2.05-3.63,.14-7.26,.09-10.89,.02-1.39-.03-1.76,.54-1.73,1.83,.04,1.97-.07,3.94-.11,5.91-1.69-.01-3.38-.03-5.06-.04-.02-3.17-.11-6.35-.05-9.52,.04-2.48,1.06-3.43,3.51-3.44,5.79-.02,11.58-.02,17.37,0,3.14,0,3.92,.77,3.94,3.92,0,1.11-.06,2.22-.09,3.33Z"/>
    <path class="cls-5" d="M308.69,573.01c-1.83,0-3.65,0-5.48,0-1.66,0-2.48-.79-2.47-2.48,.02-2.94,.03-5.88,0-8.82-.02-1.84,.91-2.55,2.66-2.54,3.65,.03,7.3,.02,10.95,0,1.78-.01,2.62,.8,2.6,2.6-.03,2.86-.04,5.72,0,8.58,.03,1.96-.93,2.71-2.79,2.66-1.82-.05-3.65-.01-5.48-.01Zm.13-3.75c5.1,0,5.06,0,4.83-4.65-.06-1.21-.43-1.7-1.66-1.66-2.05,.06-4.11,.08-6.16,0-1.38-.06-1.76,.54-1.74,1.82,.1,5.55-.55,4.36,4.26,4.5,.16,0,.32,0,.47,0Z"/>
    <path class="cls-5" d="M308.82,474.33c1.82,0,3.64,.04,5.46,0,1.77-.04,2.65,.7,2.64,2.53-.03,2.93,0,5.86,.02,8.79,.01,1.69-.82,2.45-2.49,2.44-3.72-.02-7.44-.02-11.16,0-1.81,.01-2.57-.86-2.54-2.63,.05-2.85,.06-5.7,.02-8.56-.02-1.8,.8-2.62,2.59-2.58,1.82,.04,3.64,0,5.46,.01Zm0,10.02c5.13,0,5.09,0,4.85-4.68-.06-1.23-.47-1.7-1.69-1.66-2.14,.06-4.28,.03-6.42,.01-.94,0-1.39,.3-1.51,1.34-.56,4.66-.31,4.99,4.29,4.99,.16,0,.32,0,.48,0Z"/>
    <path class="cls-1" d="M309.46,10.05c1.66,0,3.33,.06,4.99-.02,2.1-.1,3.08,.73,3.01,2.91-.09,2.69-.1,5.39,0,8.08,.08,1.97-.9,2.8-2.67,2.82-3.64,.05-7.29,.05-10.93,0-1.79-.02-2.73-.88-2.66-2.84,.1-2.69,.09-5.39,0-8.08-.07-2.18,.93-3,3.03-2.9,1.74,.08,3.48,.02,5.23,.02Zm-.19,10.03s0,0,0-.01c1.19,0,2.38,0,3.57,0,.73,0,1.1-.29,1.26-1.08,.84-4.17,.08-5.15-4.11-5.15-.87,0-1.76,.11-2.61-.02-2.35-.35-2.98,.65-2.86,2.91,.18,3.34,.04,3.35,3.33,3.35,.48,0,.95,0,1.43,0Z"/>
    <path class="cls-5" d="M308.89,601.19c-1.9,0-3.8-.01-5.7,0-1.68,.01-2.46-.81-2.44-2.48,.02-2.93,.05-5.86,0-8.8-.03-1.77,.96-2.46,2.49-2.49,3.72-.06,7.44-.06,11.16,0,1.65,.02,2.63,.78,2.58,2.65-.08,2.85-.05,5.71-.01,8.56,.02,1.8-.81,2.61-2.6,2.57-1.82-.04-3.64,0-5.46,0Zm-.03-3.38c.79,0,1.59-.08,2.37,.02,1.83,.23,2.48-.4,2.43-2.34-.11-4.33,0-4.34-4.22-4.34-.63,0-1.27,0-1.9,0-3.87,.04-3.44-.45-3.44,3.39,0,3.68-.39,3.23,3.33,3.27,.47,0,.95,0,1.42,0Z"/>
    <path class="cls-5" d="M308.81,531.02c1.82,0,3.65,.03,5.47-.01,1.93-.05,2.72,.86,2.68,2.75-.06,2.7-.08,5.39,0,8.09,.06,1.91-.91,2.88-2.65,2.93-3.72,.1-7.45,.1-11.17,.02-1.51-.03-2.47-.81-2.42-2.57,.08-3.01,.05-6.03,.01-9.04-.02-1.5,.63-2.19,2.13-2.17,1.98,.03,3.96,0,5.94,0Zm.21,3.41q-5.23,0-4.92,5c0,.08,0,.16,0,.24-.08,1.01,.39,1.42,1.39,1.4,2.29-.04,4.59-.02,6.88-.01,.73,0,1.09-.26,1.25-1.06,.88-4.56,.12-5.56-4.37-5.56h-.24Z"/>
    <path class="cls-1" d="M309.39,52.04c-1.83,0-3.65-.04-5.48,.01-1.94,.06-2.72-.87-2.69-2.75,.05-2.7,.03-5.4,0-8.11-.02-1.96,.89-2.96,2.87-2.96,3.49,0,6.99-.01,10.48,0,1.86,.01,2.97,.73,2.89,2.86-.11,2.78-.05,5.56-.02,8.34,.02,1.79-.78,2.64-2.58,2.61-1.83-.04-3.65,0-5.48,0Zm-.23-3.36q5.26,0,4.94-5c0-.08,0-.16,0-.24,.06-.98-.35-1.46-1.38-1.44-2.29,.03-4.59,.01-6.88,.01-.72,0-1.1,.28-1.27,1.07-.93,4.47-.08,5.6,4.35,5.6,.08,0,.16,0,.24,0Z"/>
    <path class="cls-5" d="M308.9,516.26c-1.83,0-3.65-.05-5.48,.01-1.95,.07-2.72-.85-2.69-2.74,.06-2.78,.08-5.57,0-8.34-.06-1.86,.89-2.67,2.55-2.7,3.73-.06,7.46-.05,11.2,0,1.62,.02,2.46,.97,2.46,2.59,.01,2.94,0,5.88,0,8.82,0,1.55-.75,2.36-2.33,2.35-1.91,0-3.81,0-5.72,0Zm.09-10.05q-5.22,0-4.88,5.05c0,.08,0,.16,0,.24-.08,1.04,.44,1.39,1.43,1.38,2.22-.03,4.43-.01,6.65,0,.78,0,1.28-.14,1.45-1.12,.81-4.71,.18-5.54-4.41-5.54h-.24Z"/>
    <path class="cls-6" d="M313.83,345.58c3.17,0,6.35,.07,9.52-.03,1.45-.05,2.09,.36,1.88,1.85-.07,.47-.07,.96,0,1.43,.27,1.82-.35,2.44-2.29,2.39-5.23-.15-10.48-.01-15.71-.08-1.31-.02-1.94,.31-1.72,1.7,.25,1.53-.41,1.65-1.71,1.24-3.65-1.15-3.66-1.1-3.57-4.55,.08-2.98,1.04-3.93,4.08-3.95,3.17-.02,6.35,0,9.52,0Z"/>
    <path class="cls-5" d="M300.32,444.18c1.69-.01,3.38-.03,5.07-.04,.05,.39,.19,.8,.13,1.17-.41,2.41,.73,2.9,2.92,2.8,3.87-.18,7.75-.07,11.63-.09,1.46,1.28,3.24,.84,4.92,.95,.7,2.8-.43,4.69-3.09,4.73-6.16,.09-12.33,.06-18.49,0-1.97-.02-3.08-1.17-3.13-3.13-.06-2.13,.02-4.27,.03-6.4Z"/>
    <path class="cls-2" d="M315.26,177.03c-2.62,0-5.23,.06-7.84-.03-1.38-.05-2.13,.27-1.91,1.82,.18,1.32-.29,1.6-1.62,1.19-3.67-1.12-3.85-1.27-3.65-4.98,.13-2.41,1.1-3.57,3.5-3.6,6.66-.09,13.31-.02,19.97-.05,1.16,0,1.54,.52,1.48,1.59-.04,.71-.06,1.43,0,2.14,.15,1.42-.36,1.99-1.86,1.93-2.69-.1-5.39-.03-8.08-.03Z"/>
    <path class="cls-1" d="M309.36,80.2c-1.82,0-3.65-.04-5.47,.01-1.77,.05-2.67-.7-2.66-2.52,.02-2.78,.03-5.55,0-8.33-.02-1.8,.84-2.58,2.62-2.56,3.65,.04,7.29,.04,10.94,0,1.76-.02,2.67,.69,2.66,2.52-.03,2.78-.03,5.55,0,8.33,.02,1.81-.84,2.6-2.62,2.56-1.82-.04-3.65,0-5.47,0Zm.02-3.36c4.89,0,4.84,0,4.75-4.75-.03-1.39-.36-2.03-1.87-1.95-1.89,.1-3.8,.11-5.7,0-1.57-.09-2.06,.5-2.02,2.04,.16,5.68-.7,4.52,4.6,4.66,.08,0,.16,0,.24,0Z"/>
    <path class="cls-6" d="M313.71,417.02c3.25,0,6.51,.06,9.76-.03,1.38-.04,1.71,.44,1.71,1.76,0,3.59,.07,3.59-3.45,3.59-4.76,0-9.52,.05-14.28-.03-1.48-.02-2.27,.29-2.03,1.95,.17,1.2-.28,1.48-1.51,1.12-3.59-1.03-3.89-1.35-3.61-4.97,.19-2.44,1.11-3.34,3.65-3.37,3.25-.04,6.51-.01,9.76-.01Z"/>
    <path class="cls-2" d="M313.6,258.57c3.25,0,6.51,.07,9.76-.03,1.49-.05,1.9,.49,1.86,1.91-.11,4.32,.3,3.5-3.55,3.54-4.68,.05-9.37,.04-14.05,0-1.36-.01-2.37,.07-2.12,1.86,.19,1.37-.43,1.57-1.7,1.18-3.7-1.12-3.92-1.38-3.56-5.27,.19-2.05,1.2-3.2,3.36-3.19,3.33,.02,6.67,0,10,0Z"/>
    <path class="cls-2" d="M313.58,215.08c3.26,0,6.52,.07,9.77-.03,1.49-.04,1.91,.5,1.87,1.92-.11,4.38,.31,3.48-3.54,3.52-4.69,.06-9.37,.04-14.06,0-1.35-.01-2.37,.05-2.11,1.84,.19,1.33-.32,1.6-1.65,1.18-3.75-1.19-3.77-1.13-3.63-4.76,.1-2.75,1.01-3.64,3.82-3.67,3.18-.03,6.36,0,9.53,0Z"/>
    <path class="cls-2" d="M313.59,274.31c3.33,0,6.67,.04,10-.02,1.25-.02,1.6,.42,1.64,1.65,.12,3.73,.18,3.73-3.59,3.73-4.68,0-9.36,.04-14.04-.02-1.38-.02-2.34,.11-2.09,1.86,.19,1.3-.29,1.63-1.64,1.21-3.71-1.14-3.79-1.15-3.63-4.76,.12-2.74,1.04-3.63,3.84-3.64,3.17-.02,6.35,0,9.52,0Z"/>
    <path class="cls-7" d="M365.26,373.79c-7.99-.07-7.24,1.07-7.26-7.18,0-.79,0-1.58,0-2.38,0-1.66,.79-2.46,2.48-2.44,3.16,.04,6.33,.02,9.49,0,1.47,0,2.21,.73,2.22,2.17,.02,2.53,0,5.07,0,7.6,0,1.48-.78,2.18-2.2,2.21-1.58,.03-3.16,0-4.75,0Zm-.18-3.14c4.59,0,4.56,0,4.25-4.25-.07-.96-.29-1.46-1.35-1.43-1.81,.05-3.62,.04-5.43,0-1-.02-1.32,.39-1.41,1.39-.39,4.3-.42,4.3,3.94,4.3Z"/>
    <path class="cls-7" d="M365.24,307.15c-1.66,0-3.32,0-4.98,0-1.46,0-2.21-.76-2.23-2.19-.03-2.53-.05-5.07,.01-7.6,.03-1.39,.78-2.19,2.25-2.19,3.24,0,6.49-.02,9.73,0,1.42,0,2.2,.73,2.2,2.21,0,2.45-.01,4.91,0,7.36,.01,1.68-.78,2.47-2.47,2.41-1.5-.05-3.01,0-4.51-.01Zm-.15-3.16c4.66-.06,4.17,.52,4.21-2.55,.04-3.13,.02-3.13-3.21-3.13-1.18,0-2.36,0-3.54,0-.66,0-1.16,.09-1.38,.92-.88,3.41,.07,4.76,3.45,4.76,.16,0,.32,0,.47,0Z"/>
    <path class="cls-7" d="M365.09,340.54c-1.5,0-3.01,.02-4.51,0-1.72-.02-2.62-.84-2.59-2.64,.04-2.22,.06-4.44,0-6.65-.05-1.89,.79-2.81,2.66-2.82,3.01,0,6.02-.02,9.02,0,1.71,.01,2.62,.79,2.56,2.64-.07,2.3-.07,4.6,0,6.89,.05,1.72-.81,2.5-2.39,2.57-1.58,.07-3.17,.01-4.75,.02Zm.25-8.9c-4.3,0-4.23,0-4.21,3.82,0,1.43,.41,1.99,1.88,1.89,1.66-.11,3.33-.02,4.99-.03,.54,0,1.23,.08,1.25-.72,.04-1.5,.38-3.17-.15-4.47-.46-1.13-2.16-.31-3.29-.49-.15-.03-.32,0-.48,0Z"/>
    <path class="cls-2" d="M260.29,222.56c-7.86-.07-7,.95-7.03-6.92-.02-5.03,0-5.03,4.94-5.03,2.22,0,4.44,.02,6.66,0,1.67-.02,2.48,.71,2.44,2.44-.06,2.3-.09,4.6,.01,6.9,.08,1.85-.72,2.64-2.5,2.62-1.51-.01-3.01,0-4.52,0Zm-.02-3.02c4.57-.06,4.23,.54,4.24-2.55,.01-3.74,.37-3.22-3.29-3.27-1.18-.01-2.36,0-3.55,0-.64,0-1.18,.04-1.42,.88-.96,3.39,.11,4.93,3.54,4.93,.16,0,.32,0,.47,0Z"/>
    <path class="cls-2" d="M260.23,268.44c1.58,0,3.17-.02,4.75,0,1.5,.02,2.36,.65,2.31,2.32-.07,2.38-.06,4.76,0,7.14,.04,1.69-.66,2.51-2.38,2.49-3.01-.03-6.02-.02-9.03,0-1.77,.01-2.64-.81-2.63-2.6,.02-2.3,.02-4.6,0-6.9-.01-1.67,.77-2.49,2.46-2.46,1.5,.03,3.01,0,4.52,0Zm0,8.83c4.54,0,4.5,0,4.32-4.16-.05-1.19-.37-1.72-1.63-1.67-1.73,.08-3.47,.01-5.2,.03-.62,0-1.2-.02-1.46,.83-1,3.3,.15,4.97,3.49,4.97h.47Z"/>
    <path class="cls-5" d="M287.46,457.75c1.4-.14,1.85-.54,1.92-1.62,.43-6.21,.47-6.21-5.71-6.21-.87,0-1.75,.08-2.61-.02-1.92-.22-3.09,.21-2.74,2.5,.18,1.18-.38,1.3-1.4,.87-2.27-.97-3.02-2.61-2.36-5.7,.43-2,2.06-1.9,3.57-1.91,3.96-.01,7.93,0,11.89,0,2.11,0,3.25,.79,3.14,3.12-.13,2.93-.15,5.87-.05,8.8,.06,1.82-.62,2.03-2.1,1.41-1-.42-2.06-.72-3.55-1.23Z"/>
    <path class="cls-7" d="M364.94,398.26c-1.51,0-3.02-.02-4.52,0-1.59,.03-2.37-.77-2.39-2.3-.03-2.46-.04-4.93,0-7.39,.02-1.38,.67-2.27,2.17-2.27,3.25,0,6.51-.02,9.76,0,1.58,0,2.28,.85,2.25,2.41-.03,2.38-.03,4.77,0,7.15,.01,1.71-.83,2.45-2.5,2.4-1.59-.04-3.17,0-4.76,0Zm.23-3.13c4.63-.06,4.11,.51,4.15-2.66,.04-3.04,.01-3.04-3.06-3.04-.79,0-1.6,.1-2.38-.02-2.25-.33-2.91,.51-2.98,2.82-.08,2.53,.77,3.28,3.08,2.9,.39-.06,.79,0,1.19,0Z"/>
    <path class="cls-2" d="M365.15,270.73c7.95,.07,6.96-1,7,6.93,.03,5.03,0,5.03-5.13,5.03-2.14,0-4.29-.02-6.43,0-1.68,.02-2.51-.81-2.52-2.45-.02-2.38,0-4.77,0-7.15,0-1.71,.89-2.42,2.56-2.36,1.51,.05,3.02,.01,4.52,.01Zm0,3.06c-4.46,.07-4.1-.64-4.33,2.82-.16,2.41,.61,3.35,3.04,3.04,1.32-.17,2.69-.03,4.03-.04,.63,0,1.21,0,1.47-.83,1.03-3.26-.17-4.99-3.51-4.99-.24,0-.47,0-.71,0Z"/>
    <path class="cls-2" d="M365.01,233.64c-7.78-.09-6.91,1.1-6.95-6.98,0-.64,.04-1.27,0-1.91-.18-2.13,.83-3.09,2.91-3.07,2.86,.02,5.71,0,8.57,.02,1.82,.01,2.76,.8,2.65,2.78-.12,2.14-.1,4.29,0,6.43,.09,2.11-.88,2.86-2.88,2.74-1.42-.09-2.86-.02-4.28-.02Zm.06-3.06c4.5-.06,4.28,.57,4.31-2.53,.04-3.29,.02-3.29-3.31-3.3-1.19,0-2.37,0-3.56,0-.76,0-1.35,.11-1.61,1.02-.95,3.35,.07,4.8,3.46,4.81,.24,0,.47,0,.71,0Z"/>
    <path class="cls-7" d="M260.32,329.25c-1.67,0-3.33-.04-5,.01-1.43,.04-2.06-.71-2.08-2.02-.04-2.54-.03-5.08-.01-7.63,0-1.42,.71-2.25,2.18-2.26,3.25-.02,6.51-.03,9.76,0,1.41,.01,2.2,.71,2.18,2.22-.03,2.54-.02,5.08,0,7.63,0,1.37-.62,2.06-2.02,2.04-1.67-.02-3.33,0-5,0Zm.03-8.65c-4.39,0-4.35,0-4.09,4.14,.07,1.07,.36,1.59,1.51,1.55,1.73-.06,3.47-.02,5.2-.02,.77,0,1.29-.13,1.47-1.09,.7-3.77,.1-4.58-3.62-4.58h-.47Z"/>
    <path class="cls-1" d="M364.99,151.33c-1.5,0-3.01-.07-4.51,.02-1.9,.12-2.55-.84-2.53-2.57,.02-2.3,.03-4.6,0-6.9-.02-1.82,.9-2.56,2.65-2.54,3.01,.03,6.02,.03,9.03,0,1.76-.02,2.66,.73,2.64,2.55-.03,2.3-.02,4.6,0,6.9,.02,1.74-.64,2.68-2.53,2.56-1.58-.09-3.17-.02-4.75-.02Zm.14-2.97c4.57,0,4.64-.14,4.25-4.31-.16-1.68-1.29-1.51-2.19-1.31-1.96,.44-4.9-1.53-5.77,1.2-1.17,3.69-.3,4.41,3.46,4.41,.08,0,.16,0,.24,0Z"/>
    <path class="cls-7" d="M260.33,420.32c-1.58,0-3.17-.04-4.75,.01-1.64,.06-2.3-.77-2.3-2.31,0-2.38-.03-4.76,0-7.14,.02-1.64,.83-2.43,2.53-2.4,3.01,.06,6.02,.04,9.03,0,1.64-.02,2.52,.63,2.49,2.39-.05,2.38-.08,4.76,0,7.14,.05,1.79-.8,2.39-2.47,2.32-1.5-.07-3.01-.01-4.52-.02Zm.11-8.63c-4.63,0-4.58,0-4.22,4.31,.1,1.15,.55,1.5,1.61,1.48,1.74-.04,3.48,0,5.22-.01,.64,0,1.2,0,1.44-.86,.95-3.37-.14-4.92-3.58-4.92-.16,0-.32,0-.47,0Z"/>
    <path class="cls-2" d="M365.01,175.9c-7.44-.04-6.92,.86-6.95-6.84-.03-5.96,.47-4.81,4.94-4.87,2.22-.03,4.44,.08,6.65-.03,1.92-.1,2.53,.81,2.5,2.55-.04,2.22-.06,4.44,.01,6.66,.06,1.73-.79,2.49-2.4,2.53-1.58,.04-3.17,0-4.75,.01Zm.19-3.1c4.53,0,4.48,0,4.25-4.27-.07-1.28-.57-1.63-1.73-1.58-1.66,.06-3.32,0-4.98,.02-.7,0-1.36-.06-1.62,.93-.91,3.5,.08,4.9,3.6,4.9,.16,0,.32,0,.47,0Z"/>
    <path class="cls-2" d="M259.52,255.75c-7.17-.08-6.19,1.04-6.26-6.94,0-.63,.03-1.27,0-1.9-.1-2.06,.73-3.08,2.92-3,2.84,.1,5.69,.05,8.54,.02,1.76-.02,2.63,.7,2.58,2.55-.07,2.37-.05,4.75,0,7.12,.03,1.49-.6,2.2-2.12,2.16-1.66-.04-3.32,0-5.66,0Zm.94-2.86h0c.95-.01,1.9-.01,2.85,0,.75,0,1.08-.32,1.22-1.11,.71-3.94,.12-4.71-3.81-4.71-.63,0-1.28,.08-1.9-.01-2.32-.36-2.87,.63-2.91,2.88-.04,2.46,.76,3.35,3.12,2.98,.46-.07,.95-.01,1.42-.01Z"/>
    <path class="cls-2" d="M260.49,161.84c1.59,0,3.17,.03,4.76,0,1.39-.03,2.04,.58,2.02,1.99-.03,2.46-.04,4.92,.01,7.38,.03,1.59-.68,2.37-2.26,2.37-3.17,0-6.34-.01-9.52,0-1.52,0-2.18-.86-2.21-2.22-.06-2.46-.03-4.92-.01-7.38,0-1.45,.71-2.19,2.21-2.15,1.66,.04,3.33,0,5,0Zm-.25,8.63c4.56,0,4.52,0,4.33-4.19-.05-1.18-.36-1.74-1.63-1.69-1.73,.07-3.47,.02-5.2,.02-.84,0-1.5,.11-1.74,1.15-.84,3.54,0,4.72,3.53,4.72,.24,0,.47,0,.71,0Z"/>
    <path class="cls-1" d="M365.14,135.56c-1.59,0-3.18-.01-4.76,0-1.56,.02-2.39-.71-2.41-2.28-.02-2.38-.04-4.77,.02-7.15,.04-1.62,.98-2.47,2.58-2.49,2.7-.03,5.41-.17,8.1,.04,1.99,.16,3.34,1.55,3.53,3.55,.21,2.13,.04,4.29,.06,6.43,0,1.28-.58,1.91-1.87,1.89-1.75-.02-3.49,0-5.24,0Zm.34-2.91c4.22,0,4.18,0,3.92-4.14-.07-1.06-.35-1.61-1.5-1.58-1.74,.05-3.48,.01-5.21,.01-.66,0-1.18,.1-1.4,.92-.91,3.36,.09,4.78,3.49,4.78,.24,0,.47,0,.71,0Z"/>
    <path class="cls-7" d="M260.37,395.97c-1.59,0-3.17-.03-4.76,0-1.61,.04-2.34-.81-2.36-2.31-.04-2.46-.03-4.92-.02-7.38,0-1.56,.77-2.26,2.38-2.22,3.09,.07,6.18,.07,9.27,0,1.69-.04,2.51,.59,2.46,2.35-.06,2.38-.05,4.76,0,7.14,.03,1.73-.78,2.46-2.46,2.42-1.51-.03-3.01,0-4.52,0Zm-.01-8.93c-4.39,0-4.33,0-4.26,4.04,.02,1.42,.45,2.01,1.91,1.92,1.65-.09,3.31-.02,4.97-.03,.75,0,1.3-.13,1.49-1.1,.75-3.98,.1-4.84-3.87-4.84-.08,0-.16,0-.24,0Z"/>
    <path class="cls-7" d="M260.51,292.96c1.51,0,3.02,.04,4.52-.01,1.59-.05,2.35,.61,2.33,2.25-.04,2.46-.03,4.92,0,7.39,.02,1.62-.8,2.29-2.35,2.28-3.09-.02-6.19-.04-9.28,0-1.7,.03-2.5-.73-2.49-2.41,.01-2.38,0-4.76,0-7.15,0-1.69,.81-2.44,2.52-2.37,1.58,.07,3.17,.02,4.76,.01Zm-.06,3.07c-4.5,.07-4.28-.62-4.3,2.78-.02,3.03,0,3.03,3.11,3.03,1.26,0,2.53,0,3.79,0,.64,0,1.18,0,1.4-.88,.92-3.59-.08-4.93-3.76-4.93-.08,0-.16,0-.24,0Z"/>
    <path class="cls-7" d="M260.22,362.65c-7.8-.08-6.97,1.06-7-6.95-.02-4.95,0-4.95,4.92-4.95,2.3,0,4.6,.03,6.9,0,1.61-.03,2.32,.73,2.3,2.31-.02,2.46-.03,4.92,0,7.39,.02,1.5-.65,2.21-2.13,2.21-1.67,0-3.33,0-5,0Zm-.05-3.07c4.92-.13,4.13,.9,4.29-3.95,.05-1.44-.4-1.99-1.87-1.89-1.65,.11-3.31,.02-4.97,.03-.65,0-1.21,.05-1.46,.86-1.03,3.25,.16,4.95,3.54,4.96,.16,0,.32,0,.47,0Z"/>
    <path class="cls-2" d="M260.31,197.98c-1.5,0-3.01-.05-4.51,.02-1.68,.08-2.54-.62-2.54-2.33,0-2.37-.02-4.75,.01-7.12,.03-1.63,.83-2.41,2.55-2.36,3,.08,6.01,.06,9.01,.01,1.69-.03,2.49,.68,2.45,2.4-.04,2.45-.03,4.91,0,7.36,.02,1.39-.61,2.05-2,2.03-1.66-.02-3.32,0-4.98,0Zm.13-8.96c-4.72,0-5,.3-4.42,4.65,.02,.16,.02,.32,.05,.47,.11,.63,.48,.99,1.13,.99,2.13,0,4.27,.01,6.4,0,.41,0,.82-.18,.85-.66,.1-1.65,.55-3.45-.2-4.9-.59-1.13-2.18-.4-3.32-.55-.16-.02-.32,0-.47,0Z"/>
    <path class="cls-2" d="M365.11,258.1c-1.27,0-2.54,0-3.81,0-2.81-.01-3.21-.39-3.24-3.1-.02-2.07,0-4.13,0-6.2-.01-1.65,.68-2.51,2.43-2.48,3.1,.05,6.2,.04,9.29,0,1.58-.02,2.38,.67,2.38,2.26,0,2.39-.02,4.77,0,7.16,.02,1.72-.84,2.44-2.52,2.38-1.51-.05-3.02,0-4.53,0Zm.11-8.96c-4.5,0-4.43,0-4.37,4.02,.02,1.52,.51,2.17,2.06,2.08,1.65-.09,3.31-.02,4.97-.02,.74,0,1.32-.06,1.52-1.05,.83-3.99,.04-5.03-3.95-5.03-.08,0-.16,0-.24,0Z"/>
    <path class="cls-2" d="M364.96,200.31c-1.51,0-3.02-.03-4.53,0-1.61,.04-2.35-.77-2.36-2.31-.02-2.38-.02-4.77,0-7.15,.01-1.52,.7-2.36,2.33-2.34,3.1,.04,6.19,.04,9.29,0,1.7-.02,2.49,.73,2.47,2.43-.03,2.3-.03,4.61,0,6.91,.02,1.68-.71,2.51-2.44,2.46-1.59-.05-3.18,0-4.76-.01Zm.28-2.82c4.44-.06,4.13,.58,4.15-2.92,.02-3.16,0-3.16-3.19-3.16-.87,0-1.75,.1-2.6-.02-2.26-.32-2.86,.69-2.76,2.82,.15,3.27,.03,3.28,3.22,3.28,.39,0,.79,0,1.18,0Z"/>
    <path class="cls-7" d="M365.11,410.84c1.58,0,3.17,.02,4.75,0,1.6-.02,2.32,.77,2.31,2.33-.01,2.38-.02,4.76-.01,7.13,0,1.54-.64,2.37-2.27,2.35-3.17-.03-6.34-.04-9.5,0-1.63,.02-2.31-.81-2.32-2.33-.02-2.38-.03-4.76-.02-7.13,0-1.67,.86-2.43,2.55-2.37,1.5,.06,3.01,.01,4.51,.01Zm.06,8.96c4.6,0,4.55,0,4.22-4.52-.08-1.15-.51-1.51-1.58-1.48-1.74,.05-3.47,.02-5.21,.01-.85,0-1.48,.12-1.68,1.2-.73,3.93-.09,4.8,3.77,4.8,.16,0,.32,0,.47,0Z"/>
    <path class="cls-1" d="M260.2,157.97c-1.58,0-3.17,0-4.75,0-1.56,0-2.35-.78-2.35-2.33,0-2.38-.05-4.76,.03-7.13,.05-1.66,.86-2.59,2.71-2.53,3.01,.09,6.02,.05,9.03,.02,1.81-.02,2.58,.86,2.55,2.63-.04,2.3-.02,4.6,0,6.9,.02,1.68-.77,2.49-2.45,2.46-1.58-.03-3.17,0-4.75,0Zm.05-2.97c.95,0,1.91,0,2.86,0,.56,0,1.24,0,1.28-.74,.07-1.5,.63-3.48-.1-4.42-1.51-1.95-4.08-.5-6.17-.83-.84-.14-1.73-.11-2.06,1.07-.97,3.5,.09,4.93,3.72,4.93,.16,0,.32,0,.48,0Z"/>
    <path class="cls-1" d="M332.34,140.89c-.57-8.96-.05-7.73,6.93-7.76,2.92-.01,5.85,.04,8.77-.02,2.01-.04,3.02,.86,2.81,2.85-.17,1.61,1.14,3.22-.03,4.81-1.23,.03-2.47,.07-3.7,.1q-.33-3.44-3.98-3.44c-1.18,0-2.37,0-3.55,0q-3.4,0-3.55,3.34c-1.23,.04-2.46,.08-3.69,.12Z"/>
    <path class="cls-1" d="M274.61,136.08c-.32-9.03-.61-7.65,7.09-7.73,2.85-.03,5.69,.05,8.54-.02,2.14-.05,3.05,.9,2.93,3.01-.09,1.58-.08,3.16-.11,4.74-1.22,0-2.45,0-3.67,0q-.24-3.42-3.77-3.42c-1.19,0-2.38,0-3.57,0q-3.53,0-3.77,3.42c-1.22,0-2.45,0-3.67,0Z"/>
    <path class="cls-2" d="M289.38,136.08c1.22,0,2.45,0,3.67,0,0,1.83,0,3.65,.01,5.48,0,1.65-.79,2.51-2.46,2.51-4.52,0-9.04,0-13.57,0-1.69,0-2.46-.86-2.45-2.51,.01-1.83,.01-3.65,.01-5.48,1.23,0,2.45,0,3.67,0,0,.55,.07,1.12-.01,1.66-.33,2.09,.5,2.87,2.6,2.62,1.4-.17,2.84-.03,4.26-.03q4.25,0,4.25-4.24Z"/>
    <path class="cls-2" d="M332.34,140.89c1.23-.04,2.46-.08,3.69-.12q-.04,4.3,4.17,4.3c.87,0,1.74,0,2.6,0q4.27,0,4.3-4.19c1.23-.03,2.47-.07,3.7-.1,0,1.74-.06,3.48,.01,5.21,.08,1.98-.72,2.91-2.77,2.88-4.26-.06-8.53-.09-12.79,0-2.2,.05-2.99-.99-2.95-3.01,.03-1.66,.02-3.32,.03-4.98Z"/>
    <path class="cls-5" d="M353,491.89c6.89,.12,6.34-1.19,6.35,6.28,0,.79,0,1.58,0,2.38,0,1.55-.75,2.36-2.31,2.36-2.85,0-5.7-.01-8.54,0-1.35,0-2.08-.53-2.06-1.97,.03-2.38,.03-4.75,0-7.13-.02-1.45,.7-1.97,2.06-1.93,1.5,.04,3.01,0,4.51,0Zm-.29,8.07c3.98,0,4.31-.37,3.78-3.98-.11-.75-.32-1.18-1.13-1.17-1.74,.01-3.47,0-5.21,0-.48,0-.88,.1-1.12,.65-1.04,2.42,.2,4.49,2.73,4.5,.32,0,.63,0,.95,0Z"/>
    <path class="cls-5" d="M352.68,539.64c-7.19-.09-6.18,.97-6.23-6.13-.04-5.37-.51-4.88,4.82-4.89,1.91,0,3.81,.02,5.72,0,1.58-.02,2.36,.72,2.36,2.3,0,2.07-.02,4.13,.01,6.2,.03,1.82-.86,2.6-2.64,2.54-1.35-.05-2.7,0-4.05,0Zm-.12-8.08c-1.11,.6-3.74-1.43-3.62,2.07,.1,3.06-.02,3.06,3.06,3.06,1.02,0,2.05,.01,3.07,0,.53-.01,1.06,.06,1.35-.64,1.02-2.43-.2-4.47-2.72-4.48-.32,0-.63,0-1.15,0Z"/>
    <path class="cls-5" d="M352.79,506.2c1.27,0,2.54,.06,3.81-.01,1.89-.1,2.82,.67,2.77,2.63-.06,1.99-.03,3.97,0,5.96,.01,1.69-.8,2.47-2.48,2.45-2.78-.03-5.56-.04-8.34,0-1.53,.02-2.15-.68-2.11-2.17,.05-2.22,.07-4.45,0-6.67-.05-1.69,.74-2.27,2.32-2.19,1.35,.06,2.7,.01,4.05,.01Zm-.19,8.07c4.16,0,4.12,0,3.91-3.63-.06-1.09-.36-1.59-1.51-1.54-1.5,.06-3,0-4.5,.02-.53,0-1.1-.08-1.43,.55-1.14,2.13,.23,4.6,2.58,4.61,.32,0,.63,0,.95,0Z"/>
    <path class="cls-5" d="M352.49,480.46c-6.96-.09-5.98,.92-5.96-6.1,0-5.42-.58-4.79,4.85-4.83,1.9-.01,3.81,0,5.71-.01,1.48-.01,2.21,.73,2.23,2.17,.03,2.14,.02,4.29,.03,6.43,0,1.56-.77,2.35-2.33,2.34-1.51,0-3.01,0-4.52,0Zm.53-2.88c1.09-.54,3.68,1.33,3.6-2.31-.05-2.42-.65-3.31-3.05-2.97-1.09,.15-2.21,.02-3.32,.03-.47,0-1.09,0-1.2,.53-.27,1.4-.42,2.9,.07,4.22,.35,.94,1.56,.39,2.38,.49,.39,.05,.79,0,1.51,0Z"/>
    <path class="cls-1" d="M256.21,125.53c.44,4.84,.44,4.77,6.04,4.8,1.77,0,2.34-.48,2.3-2.28-.08-3.51,.02-3.53-3.58-3.47-1.08,.02-2.16,.19-3.61,.33,1.13-1.88,2.1-3.28,4.36-3.25,6.54,.11,5.61-.71,5.65,5.48,.05,7.14,.67,6.44-6.54,6.45-1.59,0-3.17,.04-4.76,0-2.67-.09-4.01-2.64-2.53-4.87,.69-1.03,1.6-1.92,2.67-3.19Z"/>
    <path class="cls-1" d="M341.4,116.43c-2.14,0-4.29,.06-6.43-.02-2.11-.08-3.18-1.3-2.58-3.3,.38-1.26-.6-3.83,2.38-3.35,.47,.08,1.12,.05,1.13,.63,.04,2.36,1.75,1.74,3.07,1.78,1.51,.05,3.03-.08,4.53,.03,2.34,.18,4.18-.01,3.57-3.15-.08-.42,.09-1.24,.66-.87,1.28,.83,3.42,.96,3.11,3.33-.09,.7-.06,1.43,0,2.14,.17,2.01-1,2.72-2.74,2.76-2.22,.05-4.45,.01-6.67,.01Z"/>
    <path class="cls-5" d="M341.64,450.45c2.14,0,4.28-.03,6.43,.01,1.14,.02,2.31,.25,2.65,1.55,.4,1.54-.99,1.76-1.92,2.26-1.57,.84-3.27,.29-4.91,.37-1.9,.09-3.81,.11-5.71,0-1.65-.1-2.36,.47-2.18,2.15,.07,.62,.13,1.33-.09,1.89-.44,1.16-1.61,1.14-2.6,1.19-1.25,.05-1-.98-1.02-1.72-.04-1.59-.04-3.18-.03-4.76,.01-1.95,1.03-2.91,2.96-2.93,2.14-.01,4.28,0,6.43,0Z"/>
    <path class="cls-6" d="M342.34,394.34c2.06,0,4.12,.04,6.17-.01,1.45-.04,2.49-.1,2.47,2.01-.01,1.94-.74,2.15-2.34,2.1-3.56-.1-7.12-.05-10.68-.02-.59,0-1.63-.29-1.67,.41-.11,1.84-.6,2.13-2.41,1.54-2.18-.71-1.54-2.25-1.55-3.62-.02-1.7,1.11-2.35,2.64-2.37,2.45-.04,4.91,0,7.36,0,0,0,0-.01,0-.02Z"/>
    <path class="cls-6" d="M336.13,324.21c-1.54-1.24-3.95-.36-3.88-3.16,.07-3.11,.56-3.74,3.73-3.75,4.44,0,8.89,.09,13.33-.05,1.8-.06,1.6,.94,1.61,2.07,0,1.15,.17,2.17-1.62,2.11-3.49-.13-6.98,.06-10.47-.07-1.86-.07-3.14,.19-2.7,2.85Z"/>
    <path class="cls-6" d="M332.28,353.34c0-2.73,.61-3.37,3.34-3.38,4.52-.02,9.04,.09,13.56-.05,1.95-.06,1.68,1.03,1.74,2.24,.07,1.31-.11,2.01-1.74,1.94-3.72-.14-7.45-.06-11.18-.02-.63,0-1.47-.39-1.83,.58-.25,.68,.59,2.18-1.34,1.6-2.38-.72-2.56-.81-2.56-2.91Z"/>
    <path class="cls-6" d="M342.23,284.59c2.22,0,4.45,.12,6.66-.04,1.78-.13,2.07,.61,2.07,2.18,0,1.51-.36,2.05-1.97,1.99-3.73-.13-7.46-.06-11.19-.03-.63,0-1.47-.34-1.67,.79-.11,.6,.48,1.99-.99,1.47-1.16-.41-2.94-.1-2.91-2.36,.05-3.24,.56-3.95,3.8-3.99,2.06-.03,4.13,0,6.19,0Z"/>
    <path class="cls-2" d="M342.21,186.63c2.38,0,4.76,.08,7.14-.03,1.7-.08,1.71,.93,1.71,2.12,0,1.18,.02,2.18-1.69,2.14-3.72-.09-7.45-.04-11.18-.02-.59,0-1.64-.25-1.68,.43-.12,2.33-1.26,1.89-2.79,1.42-2.2-.68-1.42-2.4-1.4-3.74,.02-1.66,1.24-2.29,2.76-2.31,2.38-.03,4.76,0,7.14-.01Z"/>
    <path class="cls-7" d="M342.31,406.05c2.38,0,4.76,.08,7.14-.03,1.81-.08,1.57,1.1,1.59,2.2,.02,1.16,.09,2.18-1.66,2.14-3.73-.1-7.46-.04-11.19-.02-.59,0-1.65-.27-1.7,.38-.22,2.88-1.74,1.71-3.15,1.18-2.04-.76-1.06-2.46-1.02-3.68,.06-1.77,1.47-2.22,3.08-2.19,2.3,.04,4.6,.01,6.9,.01Z"/>
    <path class="cls-2" d="M342.23,251.99c2.38,0,4.76,.08,7.13-.03,1.71-.08,1.69,.95,1.69,2.13,0,1.19,.01,2.17-1.7,2.13-3.72-.09-7.45-.05-11.17-.01-.71,0-1.66-.34-1.89,.87-.11,.57,.25,1.74-.97,1.32-1.05-.36-2.5-.22-3-1.54-1.04-2.79,.46-4.85,3.48-4.87,2.14-.01,4.28,0,6.42,0Z"/>
    <path class="cls-6" d="M278.43,352.16c-1.65-1.34-3.96-.44-3.94-3.12,.04-3.35,.41-3.86,3.8-3.86,4.21,0,8.42,.05,12.63-.03,1.47-.03,2.26,.09,2.29,1.97,.03,1.99-.8,2.15-2.39,2.1-3.33-.1-6.67,.09-10-.07-1.87-.09-2.9,.3-2.39,3.01Z"/>
    <path class="cls-6" d="M284.63,279.82c2.3,0,4.6,.11,6.89-.03,1.77-.11,1.65,.92,1.63,2.08-.03,1.09,.26,2.16-1.58,2.09-3.87-.15-7.76-.06-11.64-.03-.54,0-1.29-.36-1.55,.59-.19,.69,.62,2.27-1.25,1.63-1.34-.46-2.87-.56-2.65-2.83,.27-2.85,.62-3.46,3.51-3.49,2.22-.03,4.43,0,6.65,0Z"/>
    <path class="cls-6" d="M278.3,396.07c-2.15-.47-4.19-.57-3.83-3.66,.23-2.03,1.05-2.85,2.96-2.85,4.69,0,9.37,.08,14.06-.04,1.76-.04,1.66,.91,1.64,2.08-.02,1.13,.2,2.15-1.62,2.07-3.57-.15-7.15,.07-10.72-.09-1.89-.09-2.87,.33-2.5,2.49Z"/>
    <path class="cls-7" d="M284.69,433.9c2.14,0,4.29,.08,6.43-.03,1.55-.08,2.03,.42,2.03,2.01,0,1.65-.45,2.19-2.14,2.13-3.65-.13-7.3-.06-10.95-.02-.63,0-1.52-.36-1.72,.73-.14,.77,.23,2.03-1.31,1.45-1.08-.41-2.5-.29-2.5-2.23,0-3.37,.49-4.02,3.96-4.03,2.06-.01,4.13,0,6.19,0Z"/>
    <path class="cls-2" d="M278.26,253.86c-1.84-.68-4.05-.37-3.79-3.35,.24-2.79,.53-3.29,3.39-3.29,4.36-.01,8.72,.05,13.07-.03,1.52-.03,2.25,.2,2.27,2.02,.03,1.92-.73,2.22-2.38,2.17-3.24-.11-6.5,.06-9.74-.06-1.82-.07-3.15,.12-2.83,2.55Z"/>
    <path class="cls-6" d="M278.13,407.93c-1.18-.88-3.34-.03-3.57-2.34-.34-3.45,.37-4.22,3.85-4.22,4.27,0,8.55,.08,12.82-.04,1.68-.05,1.88,.62,1.93,2.05,.05,1.59-.48,2.02-2.01,1.97-3.4-.1-6.8-.03-10.2-.03q-2.48,0-2.81,2.6Z"/>
    <path class="cls-2" d="M278.27,188.54c-1.84-.67-4.06-.36-3.79-3.34,.24-2.68,.65-3.32,3.43-3.34,4.44-.03,8.88,.06,13.32-.04,1.65-.04,1.95,.61,1.96,2.08,.02,1.58-.33,2.27-2.08,2.2-3.32-.13-6.66,.03-9.99-.07-1.75-.05-3.21,0-2.85,2.51Z"/>
    <path class="cls-6" d="M278.35,319.27c-1.46-1.04-3.84-.12-3.84-2.89,0-3.3,.43-3.84,3.79-3.84,4.35,0,8.7,.1,13.05-.05,1.81-.06,1.79,.79,1.83,2.11,.04,1.44-.22,2.14-1.91,2.07-3.48-.13-6.96,.08-10.44-.09-1.89-.09-2.84,.39-2.47,2.69Z"/>
    <path class="cls-6" d="M335.85,389.12c-1.8-.58-3.97-.49-3.61-3.52,.24-2.06,.94-3,3.09-2.96,4.52,.08,9.05,.08,13.57,0,1.47-.03,2.1,.28,2.05,1.93-.04,1.48-.33,2.1-1.97,2.03-3.33-.13-6.67-.04-10-.04q-2.68,0-3.13,2.55Z"/>
    <path class="cls-6" d="M278.32,384.45c-1.54-.91-3.88-.05-3.82-2.89,.07-3.23,.42-3.73,3.68-3.74,4.44-.02,8.88,.08,13.32-.05,1.76-.05,1.63,.88,1.65,2.05,.03,1.25-.02,2.07-1.7,2.01-3.48-.14-6.98,.05-10.46-.08-1.87-.07-3.14,.16-2.66,2.7Z"/>
    <path class="cls-2" d="M342,154.16c2.46,0,4.92,.06,7.38-.02,1.43-.05,1.51,.74,1.47,1.8-.04,1.01,.23,2.1-1.45,2.07-3.73-.07-7.46-.04-11.18,0-.8,0-1.84-.33-2.1,.95-.13,.65,.07,1.65-1.09,1.35-.96-.24-2.14-.23-2.64-1.32-1.13-2.47,.43-4.8,3.19-4.82,2.14-.01,4.28,0,6.43,0Z"/>
    <path class="cls-2" d="M284.55,149.35c2.3,0,4.61,.1,6.9-.03,1.73-.1,1.63,.91,1.68,2.1,.05,1.29-.3,1.85-1.71,1.82-3.73-.08-7.46-.05-11.18-.01-.7,0-1.69-.38-1.88,.85-.11,.72,.15,1.87-1.17,1.42-1.07-.37-2.58-.17-2.66-2.1-.15-3.33,.4-4.03,3.84-4.05,2.06,0,4.12,0,6.19,0Z"/>
    <path class="cls-2" d="M342.19,219.43c2.3,0,4.61,.09,6.91-.03,1.57-.08,1.83,.65,1.81,1.99-.02,1.29-.14,2.08-1.77,2.04-3.65-.1-7.31-.05-10.96-.02-.8,0-1.88-.34-2.04,1-.09,.73-.11,1.63-1.16,1.24-1.01-.38-2.46-.13-2.73-1.8-.5-3.14,.52-4.4,3.74-4.41,2.07,0,4.13,0,6.2,0Z"/>
    <path class="cls-2" d="M284.44,214.66c2.06,0,4.13,0,6.19,0,1.35,0,2.59-.28,2.59,1.93,0,2.07-.99,2.08-2.48,2.05-3.49-.06-6.99-.04-10.48,0-.64,0-1.62-.38-1.8,.61-.2,1.07-.05,2-1.74,1.56-2-.51-2.35-1.68-2.22-3.47,.11-1.44,.47-2.59,2.08-2.64,2.62-.08,5.24-.02,7.86-.02,0,0,0-.02,0-.02Z"/>
    <path class="cls-5" d="M364.03,444.67c-1.75,.83-2.68,3.17-4.83,2.19-2.07-.94-1.17-3.08-1.19-4.7-.08-7.89-.82-6.93,6.92-6.97,1.74,0,3.48,0,5.22,0,.77,0,1.42,.28,1.78,.96,.47,.88-.29,1.35-.8,1.74-.58,.45-.77,1.6-2.02,1.03-2.17-.98-4.5-.27-6.76-.42-.64-.04-1.06,.3-1.07,.98-.02,1.27-.12,2.54,.02,3.79,.17,1.56,1.75,.49,2.74,1.4Z"/>
    <path class="cls-1" d="M283.91,111.65c-2.22,0-4.44,0-6.66,0-.63,0-1.39,.02-1.51-.79-.1-.7,.67-.77,1.11-1.05,3.03-1.94,6.31-2.81,9.92-2.42,1.36,.15,2.66,.24,2.65-1.91,0-1.55,1.72-1.59,2.75-1.7,1.38-.15,.87,1.21,.89,1.95,.15,5.91,.14,5.91-5.83,5.91-1.11,0-2.22,0-3.33,0Z"/>
    <path class="cls-1" d="M284.26,116.9c2.38,0,4.76,.08,7.13-.03,1.63-.07,1.75,.8,1.77,2.07,.02,1.31-.38,1.85-1.76,1.83-3.73-.07-7.45-.04-11.18,0-.73,0-1.69-.29-1.83,.93-.08,.7-.03,1.68-1.11,1.28-1.02-.37-2.45-.2-2.75-1.82-.57-3.1,.36-4.25,3.54-4.26,2.06,0,4.12,0,6.18,0Z"/>
    <path class="cls-5" d="M341.99,438.88c2.3,0,4.61,.08,6.9-.03,1.57-.07,2.03,.51,2.05,2.05,.02,1.67-.7,1.97-2.15,1.94-3.65-.07-7.3-.04-10.95-.01-.65,0-1.55-.28-1.7,.79-.12,.89-.07,1.92-1.46,1.37-1.1-.44-2.49-.41-2.51-2.28-.03-2.99,.62-3.82,3.63-3.82,2.06,0,4.13,0,6.19,0Z"/>
    <path class="cls-1" d="M342.07,121.65c2.3,0,4.6,.07,6.89-.02,1.48-.06,1.92,.52,1.91,1.94,0,1.36-.32,2.03-1.85,1.99-3.64-.09-7.29-.02-10.94-.03-1.08,0-2.12-.09-2.06,1.5,.03,.71-.51,1.02-1.13,.73-.95-.44-2.28-.26-2.66-1.66-.73-2.7,.58-4.43,3.41-4.44,2.14,0,4.28,0,6.42,0Z"/>
    <path class="cls-5" d="M261.26,442.16c1.26-.68,2.79,.32,3.09-1,.32-1.42,.07-2.98,0-4.48,0-.18-.45-.5-.69-.49-2.35,.03-4.8-.56-7.02,.3-1.08,.42-1.25-.12-1.64-.58-.53-.64-1.58-1.09-1.3-2.09,.24-.87,1.18-.99,1.98-.99,3.08-.03,6.17-.06,9.25,.01,1.68,.04,2.57,.89,2.49,2.73-.11,2.29-.05,4.59-.03,6.89,0,1-.1,1.85-1.18,2.35-1.04,.48-1.87,.15-2.63-.46-.78-.63-1.46-1.37-2.31-2.18Z"/>
    <path class="cls-1" d="M353.68,106.9c-5.12-.09-5.28,1.08-5.23-5.29,.03-3.41,.35-3.75,3.87-3.74,7.81,.01,6.4-.57,6.66,6.04,.1,2.49-.81,3.32-3.15,3.01-.7-.09-1.43-.01-2.14-.01Zm.47-2.26c.74-.67,2.43,.78,2.77-1.11,.17-.95,.54-2.33-.43-2.89-1.55-.89-3.42-.56-5.08-.22-1.04,.22-.52,1.5-.58,2.31-.21,2.77,1.95,1.45,3.32,1.91Z"/>
    <path class="cls-5" d="M309.57,520.6c1.91,0,3.81,.07,5.72-.02,1.48-.07,1.68,.69,1.68,1.91,0,1.24-.25,1.92-1.7,1.89-3.09-.08-6.19-.04-9.29-.01-.6,0-1.55-.26-1.68,.46-.31,1.67-1.11,1.51-2.37,1.11-1.87-.6-1.05-2.07-1.14-3.19-.12-1.43,.95-2.01,2.12-2.07,2.22-.12,4.44-.03,6.67-.03,0-.01,0-.02,0-.03Z"/>
    <path class="cls-5" d="M309.42,492.42c1.9,0,3.81,.08,5.71-.02,1.55-.09,1.84,.63,1.84,1.99,0,1.33-.43,1.83-1.79,1.8-3.09-.07-6.18-.04-9.28,0-.66,0-1.56-.27-1.75,.74-.16,.84-.39,1.4-1.37,.98-.82-.35-1.85-.31-2.06-1.62-.44-2.74,.41-3.84,3.22-3.86,1.82-.01,3.65,0,5.47,0Z"/>
    <path class="cls-5" d="M309.43,577.32c1.9,0,3.81,.08,5.71-.03,1.56-.09,1.83,.65,1.83,2,0,1.31-.39,1.86-1.77,1.82-3.09-.07-6.19-.04-9.28,0-.66,0-1.56-.28-1.75,.73-.16,.85-.39,1.39-1.37,.97-.82-.35-1.86-.31-2.06-1.62-.44-2.75,.41-3.85,3.23-3.87,1.83-.01,3.65,0,5.48,0Z"/>
    <path class="cls-1" d="M309.88,56.34c1.98,0,3.96,.07,5.94-.02,1.5-.07,1.64,.74,1.65,1.93,0,1.21-.2,1.95-1.67,1.91-2.69-.08-5.38-.09-8.07,0-1.24,.04-2.92-.78-3.38,1.48-.14,.67-2.54,0-2.98-.87-1.04-2.1,.2-4.24,2.58-4.42,.16-.01,.32,0,.47,0,1.82,0,3.64,0,5.46,0Z"/>
    <path class="cls-5" d="M384.17,369.29c-5.18,0-6.17-1.23-5.12-6.36,.25-1.21,.96-1.73,2.17-1.71,1.58,.02,3.18,.12,4.75-.02,2.17-.2,3.13,.66,2.93,2.83-.01,.16,0,.32,0,.48,.09,5.75-.29,4.75-4.73,4.8Zm-.32-2.31c1.32-.07,2.83,.49,2.78-1.81-.05-2.18-1.51-1.59-2.65-1.61-1.24-.02-2.75-.51-2.7,1.79,.05,2.2,1.52,1.49,2.57,1.63Z"/>
    <path class="cls-5" d="M241.75,319.23c1.26,.37,3.27-.9,4.18,.76,1,1.82,.48,4.02,.28,6.06-.09,.9-.79,1.28-1.72,1.26-1.9-.03-3.8-.04-5.7,0-1.62,.03-2.31-.79-2.3-2.33,0-.16,0-.32,0-.48q-.13-5.28,5.26-5.28Zm-.28,5.72c.85-.23,2.56,.82,2.63-1.6,.05-2.05-1.2-1.92-2.46-1.79-1.14,.12-2.81-.8-2.88,1.6-.05,2.04,1.16,1.87,2.71,1.78Z"/>
    <path class="cls-5" d="M241.61,356.45c4.44,.06,4.83-.97,4.75,4.77-.04,3.21-.1,3.29-3.38,3.3-.55,0-1.11,0-1.66,0-4.61,0-6.18-2.21-4.74-6.67,.31-.95,.95-1.41,1.95-1.4,1.03,.02,2.06,0,3.09,0Zm-.33,2.3c-1.07,.13-2.52-.5-2.54,1.69-.02,2.33,1.53,1.73,2.74,1.75,1.16,.01,2.58,.51,2.6-1.65,.03-2.33-1.54-1.65-2.81-1.78Z"/>
    <path class="cls-5" d="M384.12,324.01c4.45,.06,4.85-.99,4.77,4.75-.04,3.22-.12,3.31-3.36,3.32-.63,0-1.28,.07-1.9-.01-1.43-.19-3.32,.78-4.17-.81-.99-1.84-.53-4.02-.25-6.04,.12-.86,.93-1.21,1.82-1.2,1.03,.01,2.06,0,3.09,0Zm-.31,5.75c1.4-.04,2.87,.45,2.8-1.83-.07-2.2-1.55-1.54-2.67-1.58-1.26-.05-2.74-.47-2.67,1.81,.06,2.21,1.57,1.44,2.54,1.6Z"/>
    <path class="cls-1" d="M309.77,28.18c1.98,0,3.95,.06,5.93-.02,1.35-.05,1.79,.46,1.78,1.79-.01,1.29-.57,1.62-1.73,1.6-3.08-.05-6.16-.03-9.24,0-.72,0-1.56-.29-1.92,.85-.39,1.25-2.22,1.47-3,.36-.68-.96-.44-2.15-.19-3.2,.22-.92,1-1.38,1.98-1.38,2.13,0,4.27,0,6.4,0Z"/>
    <path class="cls-1" d="M311,98.33c-1.59,0-3.17-.01-4.76,0-.53,0-1.31-.18-1.47,.45-.42,1.67-1.44,1.7-2.68,1.1-1.47-.71-.86-2.1-.77-3.18,.1-1.34,1.14-1.76,2.41-1.74,2.22,.03,4.44,0,6.67,0,1.67,0,3.33,.04,5-.01,1.26-.04,2.1,.1,2.09,1.74,0,1.74-1.03,1.65-2.19,1.63-1.43-.02-2.86,0-4.29,0Z"/>
    <path class="cls-5" d="M309.43,549.14c1.91,0,3.81,.06,5.71-.02,1.32-.05,1.82,.39,1.83,1.76,.01,1.49-.72,1.68-1.92,1.66-3.02-.05-6.03-.03-9.05,0-.6,0-1.65-.25-1.69,.4-.13,2.19-1.24,1.53-2.48,1.14-1.75-.55-1.04-1.95-1.04-2.99,0-1.48,1.06-1.97,2.44-1.96,2.06,.03,4.13,0,6.19,0Z"/>
    <path class="cls-1" d="M309.72,84.94c1.98,0,3.97,.06,5.95-.02,1.35-.05,1.81,.45,1.8,1.8-.01,1.3-.58,1.61-1.75,1.6-3.09-.05-6.19-.03-9.29,0-.74,0-1.5-.19-1.91,.91-.42,1.11-2.58,1.03-3.18,0-1.05-1.81,.28-4.22,2.42-4.27,1.98-.05,3.97-.01,5.95-.01Z"/>
    <path class="cls-1" d="M301.23,2.53c-.03-1.64,.7-2.52,2.42-2.51,4.05,.02,8.1,.04,12.15-.01,1.24-.02,1.68,.44,1.67,1.67,0,1.17-.33,1.75-1.62,1.72-2.78-.06-5.56-.06-8.33,0-1.2,.03-2.72-.64-3.18,1.47-.17,.79-1.21,.24-1.89,.1-1.49-.3-1.19-1.44-1.21-2.44Z"/>
    <path class="cls-5" d="M241.37,340.2c5.08,.07,5.05-1.16,5,5.71-.01,1.55-.67,2.37-2.28,2.36-1.82-.02-3.64,0-5.46-.01-.31,0-.69,.02-.92-.14-2.33-1.65-.95-4.07-1.14-6.14-.14-1.54,1.06-1.9,2.43-1.79,.79,.06,1.58,.01,2.37,.01Zm.13,5.74c1.19-.03,2.58,.45,2.61-1.82,.03-2.4-1.44-1.93-2.81-1.97-1.38-.04-2.59-.2-2.58,1.96,.01,2.27,1.39,1.82,2.77,1.84Z"/>
    <path class="cls-5" d="M241.46,302.99c4.8,0,6.09,1.73,4.85,6.52-.25,.97-.85,1.52-1.84,1.53-2.06,.02-4.12,.02-6.17,0-.79,0-1.49-.4-1.62-1.15-.33-1.95-.38-3.93,.04-5.88,.18-.83,.86-1.04,1.65-1.02,1.03,.03,2.06,0,3.09,0Zm-.44,5.75c1.58-.05,3.13,.51,3.09-1.93-.03-1.98-1.08-2-2.42-1.86-1.23,.13-2.94-.75-2.96,1.79-.01,2.08,1.06,2.13,2.29,1.99Z"/>
    <path class="cls-5" d="M241.47,380.77c-5.03-.08-5.04,1.23-4.98-5.73,.01-1.55,.67-2.37,2.29-2.34,1.74,.03,3.48,0,5.22,0,.24,0,.5-.04,.71,.04,3.05,1.2,1.26,3.82,1.6,5.79,.26,1.46-.53,2.4-2.23,2.25-.86-.08-1.74-.01-2.61-.01Zm.58-5.78c-1.81,.09-3.36-.48-3.32,1.96,.03,1.99,1.08,1.99,2.42,1.86,1.24-.12,2.94,.73,2.96-1.8,.01-2.09-1.09-2.11-2.06-2.01Z"/>
    <path class="cls-5" d="M241.34,329.7c5.28,0,5.52,.31,5.04,5.92-.13,1.45-.77,2.18-2.23,2.17-.55,0-1.11,0-1.66,0-6.55-.1-5.51,.99-5.66-5.91-.04-1.61,.44-2.39,2.15-2.21,.78,.08,1.58,.01,2.37,.01Zm.08,5.74c.96-.22,2.64,.75,2.67-1.65,.02-2.09-1.3-1.81-2.51-1.73-1.15,.08-2.79-.73-2.83,1.65-.03,2.1,1.29,1.73,2.67,1.73Z"/>
    <path class="cls-5" d="M383.92,334.47c5.22,0,5.51,.38,4.98,5.97-.14,1.46-.82,2.15-2.27,2.13-.55-.01-1.11,0-1.66,0-6.44-.09-5.46,.92-5.63-5.72-.05-1.9,.59-2.63,2.45-2.39,.7,.09,1.42,.01,2.13,.01Zm.04,5.74c.93-.23,2.63,.77,2.66-1.63,.03-2.08-1.27-1.84-2.5-1.74-1.15,.09-2.8-.75-2.84,1.63-.04,2.09,1.26,1.76,2.68,1.74Z"/>
    <path class="cls-1" d="M384,185.15q-4.61,0-4.61-4.66,0-3.44,3.37-3.44c.32,0,.63,0,.95,0,5.32,0,6.1,.96,5.19,6.33-.2,1.18-.74,1.86-2.04,1.78-.95-.06-1.9-.01-2.85-.01Zm-.16-2.36c1.3-.08,2.82,.49,2.76-1.79-.05-2.16-1.52-1.56-2.64-1.58-1.23-.02-2.75-.52-2.69,1.76,.05,2.17,1.53,1.46,2.57,1.61Z"/>
    <path class="cls-1" d="M384.3,160.82q4.64,0,4.62,4.7c-.01,3.11-.3,3.39-3.41,3.4-.16,0-.32,0-.48,0-6.46-.09-5.52,.95-5.66-5.71-.03-1.71,.51-2.56,2.31-2.4,.87,.07,1.74,.01,2.62,.01Zm-.36,2.36c-1.11,.12-2.71-.59-2.67,1.76,.03,2,1.33,1.67,2.44,1.58,1.15-.09,2.85,.8,2.89-1.61,.04-2.13-1.35-1.7-2.66-1.74Z"/>
    <path class="cls-5" d="M383.96,385.53c-5.28,0-5.42-.28-4.71-5.72,.24-1.84,.88-2.55,2.66-2.35,.62,.07,1.26,.01,1.9,.01,4.87,0,6.44,2.16,5.02,6.9-.24,.81-.75,1.16-1.56,1.16-1.11,0-2.21,0-3.32,0Zm.32-5.74c-1.6,.02-3.08-.43-3.03,1.97,.04,2.03,1.17,1.91,2.46,1.82,1.27-.09,2.92,.67,2.92-1.84,0-2.14-1.18-2.03-2.35-1.95Z"/>
    <path class="cls-7" d="M260.78,308.52c1.51,0,3.01,.03,4.52,0,1.22-.03,2.13,.02,2.1,1.71-.03,1.58-.9,1.58-2,1.57-2.14-.02-4.28-.04-6.42,.01-1.08,.03-2.35-.48-2.87,1.27-.27,.91-1.22,.14-1.84-.03-1.27-.35-1.06-1.42-1.02-2.35,.04-1.04,.44-1.96,1.6-2.01,1.97-.09,3.95-.02,5.93-.02,0-.05,0-.09,0-.14Z"/>
    <path class="cls-1" d="M384.19,226.18c5.18,.02,4.72-.55,4.72,4.72,0,3.09-.28,3.36-3.44,3.37-.08,0-.16,0-.24,0-6.74-.1-5.69,.97-5.88-5.74-.06-1.95,.63-2.59,2.46-2.36,.78,.1,1.58,.02,2.38,.02Zm-.29,5.73c1.24-.06,2.68,.5,2.73-1.79,.05-2.36-1.36-2.02-2.77-2.02s-2.62-.26-2.61,1.92c0,2.2,1.29,1.93,2.65,1.88Z"/>
    <path class="cls-5" d="M384.15,307.76c5.23,.03,4.74-.61,4.74,4.93,0,2.83-.31,3.12-3.15,3.14-.16,0-.32,0-.48,0-6.81-.12-5.76,1.06-5.91-5.92-.04-1.66,.52-2.34,2.19-2.17,.86,.09,1.74,.02,2.61,.02Zm-.49,5.74c1.47-.04,3.02,.53,2.99-1.91-.03-1.97-1.06-2.01-2.42-1.87-1.23,.13-2.94-.76-2.96,1.79-.01,2.08,1.05,2.14,2.39,1.99Z"/>
    <path class="cls-1" d="M241.6,221.41c5.3,.03,4.78-.6,4.78,4.89,0,2.81-.37,3.17-3.14,3.19-.16,0-.32,0-.48,0-6.88-.14-5.8,1.26-5.92-6.39-.02-1.19,.39-1.78,1.65-1.71,1.03,.06,2.06,.01,3.09,.01Zm-.16,5.72c1.37,.07,2.65,.34,2.67-1.86,.02-2.17-1.24-1.95-2.6-1.94-1.39,.02-2.83-.37-2.78,2,.05,2.28,1.46,1.76,2.71,1.79Z"/>
    <path class="cls-5" d="M384.05,344.97c5.31,.04,4.84-.63,4.84,4.83,0,2.96-.28,3.22-3.29,3.24-.24,0-.48,0-.71,0-6.33-.08-5.37,.86-5.55-5.58-.06-2.01,.63-2.75,2.58-2.5,.7,.09,1.42,.01,2.14,.01Zm-.23,5.74c1.45,.03,2.87,.38,2.83-1.98-.04-2.31-1.5-1.76-2.74-1.79-1.31-.03-2.65-.37-2.65,1.87,0,2.18,1.24,1.97,2.56,1.9Z"/>
    <path class="cls-5" d="M383.88,289.11c-5.05,0-4.49,.37-4.5-4.69-.01-3.37,0-3.37,3.31-3.37,1.27,0,2.54,.09,3.8-.02,1.93-.17,2.6,.73,2.41,2.53-.02,.16,0,.32,0,.48q.02,5.08-5.02,5.08Zm-.21-2.32c1.55,0,3.01,.42,2.97-1.97-.04-2.29-1.46-1.79-2.72-1.81-1.29-.02-2.67-.41-2.67,1.85,0,2.15,1.19,2.02,2.41,1.93Z"/>
    <path class="cls-1" d="M241.5,276.27c5.49,.07,4.85-.92,4.88,5.75,0,1.57-.76,2.34-2.33,2.33-1.74,0-3.53,.25-5.23-.05-3.93-.69-1.27-3.85-1.9-5.79-.46-1.42,.15-2.47,1.97-2.26,.86,.1,1.74,.02,2.62,.02Zm-.13,5.73c1.24-.06,2.68,.49,2.73-1.79,.05-2.36-1.36-2.01-2.77-2.01-1.35,0-2.62-.26-2.61,1.93,0,2.2,1.3,1.93,2.65,1.88Z"/>
    <path class="cls-5" d="M384.07,401.79q-4.7-.02-4.69-4.86,0-3.22,3.12-3.23c.4,0,.79,0,1.19,0,5.27,0,5.19,0,5.24,5.39,.02,2.06-.62,2.98-2.73,2.72-.7-.08-1.42-.01-2.14-.02Zm-.64-1.96c1.73-.07,3.24,.45,3.21-1.96-.02-2.28-1.43-1.82-2.69-1.82-1.25,0-2.7-.49-2.7,1.81,0,2.12,1.13,2.07,2.18,1.97Z"/>
    <path class="cls-5" d="M241.43,397.02q-4.59,0-4.59-4.72,0-3.38,3.45-3.38c.24,0,.48,0,.71,0,5.44,0,5.38,0,5.39,5.49,0,1.93-.58,2.84-2.59,2.62-.78-.09-1.58-.01-2.38-.01Zm-.12-2c1.43,.03,2.85,.39,2.81-1.98-.04-2.32-1.51-1.73-2.74-1.77-1.29-.04-2.66-.41-2.65,1.85,0,2.18,1.25,1.96,2.58,1.9Z"/>
    <path class="cls-1" d="M383.96,201.37q-4.57,0-4.57-4.69,0-3.39,3.41-3.39c.32,0,.63,0,.95,0q5.21,0,5.16,4.95c-.03,2.94-.21,3.13-3.06,3.14-.63,0-1.26,0-1.9,0Zm.6-1.96c.62-.02,2.05,.48,2.07-1.79,.02-2.1-1.12-2.06-2.55-2-1.34,.06-2.86-.47-2.83,1.94,.02,2.22,1.34,1.88,3.31,1.84Z"/>
    <path class="cls-5" d="M384.14,291.51c5.22,.04,4.74-.63,4.75,4.91,0,2.82-.35,3.16-3.1,3.19-.24,0-.47,0-.71,0-6.77,.02-5.53,.27-5.73-5.72-.06-1.89,.56-2.63,2.43-2.4,.78,.1,1.58,.02,2.37,.02Zm-.39,5.74c1.49,.01,2.93,.41,2.89-1.98-.04-2.31-1.49-1.77-2.73-1.8-1.3-.03-2.67-.41-2.66,1.86,0,2.17,1.22,1.99,2.5,1.92Z"/>
    <path class="cls-1" d="M384.07,270.55c4.65,0,6.13,2.03,4.78,6.58-.28,.93-.9,1.47-1.89,1.51-.63,.02-1.27,.01-1.9,.01-5.96,0-6.67-.87-5.67-6.85,.15-.88,.51-1.26,1.37-1.25,1.11,.01,2.21,0,3.32,0Zm.08,5.72c1.29,.11,2.48,.21,2.48-1.93,0-2.23-1.35-1.89-2.66-1.86-1.26,.03-2.68-.47-2.72,1.81-.04,2.36,1.38,2,2.9,1.98Z"/>
    <path class="cls-1" d="M241.46,196.6q-4.6,0-4.59-4.66,0-3.42,3.38-3.43c.4,0,.79,0,1.19,0q5,0,4.96,4.92c-.03,3.02-.18,3.16-3.27,3.17-.55,0-1.11,0-1.66,0Zm.65-5.78c-1.79,.14-3.41-.54-3.38,1.93,.03,1.9,.96,2.09,2.37,1.91,1.22-.15,2.96,.78,3-1.76,.03-2.01-.95-2.23-1.99-2.08Z"/>
    <path class="cls-1" d="M384.09,254.31c5.35,.03,4.81-.57,4.82,4.83,0,2.93-.34,3.25-3.28,3.27-.16,0-.32,0-.47,0-6.83,.02-5.62,.31-5.78-5.9-.04-1.59,.38-2.41,2.11-2.21,.86,.1,1.74,.02,2.61,.02Zm-.63,5.75c1.64-.08,3.21,.52,3.17-1.92-.03-1.94-1.04-2.02-2.41-1.88-1.23,.13-2.94-.74-2.97,1.78-.02,2.06,1.03,2.15,2.2,2.01Z"/>
    <path class="cls-1" d="M241.57,265.78c4.6,0,6.14,2.14,4.75,6.61-.25,.82-.8,1.37-1.69,1.45-.63,.06-1.26,.05-1.9,.04-6.8-.1-5.74,1.01-5.9-5.92-.04-1.6,.4-2.39,2.12-2.2,.86,.1,1.74,.02,2.61,.02Zm-.48,5.73c1.57-.02,3.06,.42,3.01-1.97-.04-2-1.15-1.93-2.46-1.83-1.27,.09-2.92-.65-2.92,1.84,0,2.11,1.15,2.06,2.37,1.96Z"/>
    <path class="cls-5" d="M241.44,286.74c5.5,.08,4.92-1.07,4.91,5.93,0,1.47-.81,2.15-2.23,2.16-.55,0-1.11,0-1.66,0-6.72,.03-5.44,.17-5.65-5.56-.07-1.93,.48-2.83,2.5-2.56,.7,.09,1.42,.01,2.13,.01Zm-.15,5.74c1.44,0,2.81,.42,2.82-1.84,.01-2.18-1.22-1.98-2.6-1.95-1.36,.03-2.83-.44-2.8,1.97,.03,2.3,1.44,1.78,2.57,1.82Z"/>
    <path class="cls-1" d="M241.44,249.54c4.8,0,6.18,1.83,4.89,6.53-.29,1.06-1.01,1.57-2.1,1.57-1.75,0-3.49,.02-5.24,0-1.39-.03-2.29-.59-2.14-2.17,.04-.47,0-.95,0-1.43q0-4.48,4.58-4.48Zm.5,5.7c.66-.04,2.11,.54,2.16-1.76,.05-2.36-1.36-2.01-2.77-2.01-1.34,0-2.62-.26-2.61,1.92,0,2.21,1.31,1.91,3.22,1.84Z"/>
    <path class="cls-1" d="M241.44,180.38c-5.06-.02-4.56,.48-4.57-4.62q0-3.48,3.58-3.48c.4,0,.79,0,1.19,0q4.79,0,4.75,4.91c-.03,3.01-.2,3.18-3.28,3.19-.56,0-1.11,0-1.67,0Zm-.09-1.98c1.46,.12,2.75,.32,2.77-1.99,.02-2.17-1.01-2.28-2.63-2.22-1.43,.06-2.8-.3-2.78,2.05,.01,2.12,.94,2.42,2.63,2.16Z"/>
    <path class="cls-7" d="M366.64,347.32c-1.35,0-2.69-.02-4.04,0-.52,0-1.29-.16-1.35,.59-.1,1.35-.7,1.28-1.71,.93-1-.35-1.66-.75-1.56-1.97,.1-1.16,.17-2.53,1.52-2.59,3.95-.17,7.91-.11,11.86-.07,1.06,.01,.81,.97,.85,1.64,.04,.76-.02,1.46-1.06,1.46-1.5,0-3.01,0-4.51,0h0Z"/>
    <path class="cls-7" d="M366.76,313.98c-1.35,0-2.7-.02-4.04,.01-.51,.01-1.27-.26-1.42,.47-.22,1-.4,1.66-1.66,1.11-.92-.4-1.76-.68-1.64-1.95,.1-1.03,0-2.14,1.23-2.57,.51-.18,1.08-.28,1.63-.28,3.25-.03,6.5,.03,9.75-.03,1.25-.02,1.63,.44,1.65,1.67,.02,1.3-.49,1.66-1.69,1.59-1.26-.07-2.54-.02-3.81-.02Z"/>
    <path class="cls-1" d="M384.17,209.94c5.25,.03,4.66-.61,4.79,4.93,.05,2.05-.57,2.95-2.71,2.76-1.5-.14-3.03-.15-4.52,0-1.99,.21-2.58-.67-2.34-2.46,.02-.16,0-.32,0-.48q-.01-4.76,4.77-4.76Zm-.2,5.72c1.37,.08,2.65,.34,2.67-1.86,.02-2.18-1.25-1.95-2.61-1.93-1.39,.01-2.83-.37-2.77,2.01,.05,2.29,1.47,1.75,2.71,1.79Z"/>
    <path class="cls-7" d="M365.55,286.34c1.43,0,2.85-.03,4.28,.01,1.08,.03,2.42-.49,2.44,1.56,.02,1.95-1.14,1.69-2.33,1.69-1.74,0-3.5-.14-5.22,.04-1.33,.14-3.2-1.04-3.84,1.47-.16,.61-1.41-.09-2.1-.36-1.23-.5-.75-1.61-.71-2.48,.05-1.07,.67-1.83,1.78-1.87,1.9-.07,3.8-.02,5.7-.02,0,0,0-.02,0-.03Z"/>
    <path class="cls-2" d="M365.89,179.61c1.51,0,3.01,.03,4.52-.01,1.09-.03,1.77,.12,1.79,1.51,.02,1.5-.69,1.67-1.9,1.63-2.14-.06-4.28-.08-6.42,0-1.11,.04-2.64-.67-2.91,1.39-.09,.66-.76,.27-1.18,.12-.71-.26-1.53-.29-1.74-1.34-.39-1.99,.49-3.21,2.6-3.29,1.74-.07,3.49-.01,5.23-.02Z"/>
    <path class="cls-7" d="M365.61,401.91c1.51,0,3.02,.03,4.53,0,1.21-.03,2.13-.04,2.11,1.68-.02,1.63-.94,1.52-2.01,1.51-2.46-.02-4.92-.02-7.38,0-.52,0-1.4-.25-1.49,.34-.26,1.76-1.19,1.39-2.31,.99-1.4-.5-1.03-1.62-.98-2.59,.08-1.4,1.08-1.87,2.29-1.91,1.74-.05,3.49-.01,5.24-.01h0Z"/>
    <path class="cls-7" d="M260.8,375.17c1.66,0,3.33,.03,4.99-.01,1.07-.03,1.59,.29,1.58,1.48,0,1.16-.27,1.75-1.59,1.72-2.53-.08-5.07-.04-7.61,0-.59,0-1.58-.31-1.68,.4-.23,1.6-.99,1.35-2.09,1.02-1.41-.42-1.23-1.48-1.16-2.49,.09-1.26,.69-2.1,2.08-2.1,1.82,0,3.65,0,5.47,0Z"/>
    <path class="cls-7" d="M365.58,377.46c1.58,0,3.16,.04,4.74-.01,1.16-.04,1.95,.06,1.94,1.6,0,1.43-.6,1.73-1.86,1.69-2.29-.07-4.59-.05-6.88,0-.99,.02-2.29-.51-2.48,1.3-.07,.68-.77,.32-1.16,.17-.69-.27-1.57-.23-1.86-1.21-.56-1.92,.52-3.46,2.57-3.52,1.66-.04,3.32,0,4.98-.01Z"/>
    <path class="cls-1" d="M241.43,212.84q-4.57,0-4.56-4.49,0-3.17,3.27-3.17c.71,0,1.44-.09,2.14,.02,1.26,.2,2.99-.79,3.69,.75,.86,1.9,.62,4.03,.1,6.05-.19,.73-.85,.85-1.53,.84-1.03-.01-2.06,0-3.1,0Zm.46-5.75c-1.68,.05-3.21-.45-3.16,1.96,.04,1.99,1.11,1.97,2.44,1.85,1.25-.11,2.93,.7,2.94-1.82,0-2.1-1.11-2.1-2.22-1.99Z"/>
    <path class="cls-7" d="M365.57,319.73c1.67,0,3.33,.06,5-.02,1.22-.05,1.68,.35,1.69,1.62,0,1.33-.58,1.6-1.74,1.58-2.54-.05-5.08-.03-7.62,0-.59,0-1.51-.24-1.62,.57-.23,1.71-1.18,.98-2.04,.77-1.39-.34-1.31-1.39-1.22-2.44,.09-1.14,.53-2.03,1.84-2.06,1.9-.04,3.81,0,5.71,0h0Z"/>
    <path class="cls-7" d="M267.32,285.68c.24,1.31-.42,1.63-1.61,1.6-2.3-.06-4.6-.06-6.9,0-1.04,.03-2.2-.51-2.76,1.32-.27,.87-2.03,.16-2.65-.7-.97-1.35,.18-3.74,1.85-3.79,3.64-.13,7.3-.04,10.94-.06,1.18,0,1.2,.78,1.13,1.63Z"/>
    <path class="cls-2" d="M365.35,212.92c1.74,0,3.48,.06,5.22-.02,1.29-.06,1.61,.49,1.61,1.68,0,1.16-.46,1.51-1.56,1.49-2.53-.05-5.06-.04-7.6,0-.65,0-1.37-.23-1.86,.63-.61,1.07-2.4,1.01-2.98,0-.83-1.45,.24-3.63,1.95-3.74,1.73-.11,3.48-.02,5.22-.02h0Z"/>
    <path class="cls-7" d="M260.64,333.09c1.5,0,3-.01,4.51,0,1.05,.01,2.22-.34,2.25,1.51,.03,1.98-1.22,1.64-2.36,1.64-2.06,.01-4.11-.04-6.16,.02-1.05,.03-2.16-.45-2.8,1.31-.36,.99-2.06,.12-2.66-.7-1.06-1.45,.19-3.64,2.02-3.78,.08,0,.16,0,.24,0,1.66,0,3.32,0,4.98,0Z"/>
    <path class="cls-1" d="M365.56,155.08c1.66,0,3.32,.04,4.98-.01,1.14-.03,1.75,.27,1.76,1.58,.01,1.33-.44,1.85-1.79,1.8-2.21-.07-4.43-.06-6.64,0-1.07,.03-2.46-.54-2.72,1.36-.08,.63-.77,.3-1.2,.16-.8-.27-1.72-.33-2-1.4-.53-2.02,.48-3.42,2.61-3.47,1.66-.04,3.32,0,4.98,0Z"/>
    <path class="cls-2" d="M260.71,259.68c1.74,0,3.49,.04,5.23-.01,1.05-.03,1.36,.45,1.36,1.43,0,1-.12,1.68-1.38,1.66-2.53-.06-5.07-.03-7.6,0-.67,0-1.72-.31-1.87,.54-.29,1.6-1.12,1.07-2.03,.82-1.42-.39-1.16-1.5-1.13-2.5,.04-1.1,.61-1.85,1.73-1.89,1.9-.07,3.8-.02,5.7-.02,0,0,0-.01,0-.02Z"/>
    <path class="cls-2" d="M267.27,227.94c.17,1.16-.4,1.51-1.5,1.49-2.3-.05-4.6-.06-6.9,0-1.05,.03-2.17-.45-2.84,1.28-.37,.95-2.05,.14-2.63-.76-.91-1.43,.32-3.6,2.05-3.64,3.49-.09,6.98,0,10.47-.05,1.26-.02,1.46,.66,1.35,1.67Z"/>
    <path class="cls-1" d="M260.76,136.98c1.86,0,3.37,.06,4.87-.02,1.36-.07,1.79,.49,1.78,1.81,0,1.33-.65,1.58-1.78,1.56-2.22-.04-4.44-.05-6.66,0-1.08,.02-2.4-.5-2.74,1.37-.15,.83-1.04,.23-1.63,.13-1.15-.21-1.58-.9-1.52-2.02,.06-1.07,.19-2.04,1.42-2.46,2.17-.74,4.41-.16,6.25-.37Z"/>
    <path class="cls-2" d="M260.79,201.89c1.35,0,2.7-.06,4.04,.02,1.03,.06,2.46-.63,2.49,1.48,.03,2.25-1.51,1.57-2.62,1.6-2.22,.07-4.44,.01-6.66,.03-.53,0-1.4-.18-1.5,.37-.35,1.9-1.37,1.12-2.37,.77-1.46-.51-.9-1.71-.82-2.62,.1-1.24,1.03-1.66,2.21-1.65,1.74,.02,3.49,0,5.23,0Z"/>
    <path class="cls-7" d="M260.78,341.92c1.66,0,3.32,.04,4.98-.01,1.25-.04,1.62,.49,1.62,1.7,0,1.23-.59,1.42-1.61,1.41-2.61-.04-5.22-.03-7.83,0-.51,0-1.37-.28-1.46,.37-.2,1.5-.82,1.51-2.05,1.08-1.51-.53-1.23-1.65-1.16-2.72,.09-1.23,.84-1.81,2.06-1.81,1.82,0,3.64,0,5.45,0,0,0,0,0,0,0Z"/>
    <path class="cls-7" d="M260.69,366.43c1.66,0,3.32,.05,4.98-.02,1.15-.04,1.72,.22,1.72,1.55,0,1.35-.66,1.57-1.76,1.56-2.29-.03-4.58-.03-6.88,0-1.04,.01-2.16-.35-2.62,1.26-.27,.96-1.2,.18-1.83,.04-1.52-.34-1.06-1.56-1.03-2.5,.04-1.04,.56-1.85,1.73-1.87,1.9-.04,3.79-.01,5.69-.01h0Z"/>
    <path class="cls-7" d="M365.5,353.07c1.75,0,3.5,.05,5.24-.02,1.15-.04,1.51,.41,1.5,1.53,0,1.11-.37,1.59-1.5,1.58-2.3-.04-4.61-.04-6.91,0-1.09,.02-2.31-.44-2.87,1.29-.33,1.04-1.37,.1-2.06-.08-1.36-.35-.9-1.52-.86-2.38,.05-1.02,.54-1.87,1.73-1.9,1.9-.04,3.81-.01,5.72-.01h0Z"/>
    <path class="cls-1" d="M383.83,158.41c-4.87-.01-4.42,.42-4.42-4.5q0-3.57,3.69-3.57c3.84,0,5.85,2.03,5.81,5.92-.01,1.32-.65,2.09-2,2.15-1.03,.04-2.05,0-3.08,.01Zm.03-5.98c-1.86-.41-2.75-.03-2.53,1.53,.13,.94-.59,2.76,1.16,2.41,1.36-.27,3.76,.95,4.07-1.82,.29-2.64-2.01-1.71-2.71-2.11Z"/>
    <path class="cls-1" d="M241.26,164.14c-4.36-.02-4.36,.55-3.35-4.3,.26-1.25,.03-3.14,1.4-3.57,1.92-.61,4.07-.33,6.1-.07,.32,.04,.67,.66,.81,1.07,.17,.51,.16,1.09,.17,1.64q.11,5.22-5.12,5.23Zm.23-2.33c1.02-.21,2.57,.58,2.6-1.65,.03-2.11-1.32-1.8-2.55-1.74-1.21,.06-2.82-.62-2.79,1.73,.02,2.22,1.54,1.48,2.74,1.66Z"/>
    <path class="cls-5" d="M284.93,541.97c-1.1,0-1.89-.03-2.68,0-1.43,.07-1.89-.64-1.97-2.01-.28-5.44-.26-5.53,5.3-5.47,1.1,.01,2.79-.59,3.08,.91,.38,1.96,.78,4.21-.25,6.01-.72,1.25-2.52,.25-3.49,.54Zm-.41-2.27c1.02-.14,2.46,.49,2.44-1.53-.02-1.84-1.3-1.44-2.31-1.42-1.06,.02-2.48-.51-2.47,1.5,.01,1.85,1.3,1.35,2.34,1.45Z"/>
    <path class="cls-7" d="M260.85,424.23c1.5,0,3.01,.03,4.51,0,1.11-.03,1.99-.05,1.95,1.55-.05,1.59-.99,1.54-2.06,1.53-1.9-.01-3.81-.09-5.7,.03-1.26,.08-2.85-.77-3.59,1.29-.25,.71-1.3,.04-1.91-.23-1.06-.47-.75-1.47-.68-2.29,.08-1.05,.63-1.82,1.79-1.84,1.9-.03,3.8,0,5.7,0,0,0,0-.02,0-.03Z"/>
    <path class="cls-1" d="M273.38,50.6c4.36,0,5.97,1.91,4.32,6.05-1.24,3.12-4.46,1.14-6.76,1.5-1.42,.22-2.11-.81-2.1-2.23,0-.24,0-.47,0-.71,.01-5.16-.39-4.58,4.54-4.61Zm-.04,5.26c1.11-.12,2.69,.57,2.65-1.75-.03-1.98-1.33-1.64-2.43-1.56-1.14,.08-2.82-.79-2.86,1.6-.04,2.11,1.34,1.68,2.63,1.72Z"/>
    <path class="cls-1" d="M334.08,51.59c4.73,0,4.32-.38,4.32,4.4q0,3.17-3.17,3.18c-.71,0-1.43,0-2.14,0q-3.24,0-3.25-3.34,0-4.24,4.24-4.24Zm.02,1.88c-1.11,.05-2.38-.37-2.43,1.58-.05,2.04,1.21,1.83,2.47,1.79,1.11-.03,2.38,.36,2.43-1.59,.05-2.03-1.19-1.83-2.47-1.78Z"/>
    <path class="cls-1" d="M334.16,68.72c-4.72,0-4.32,.41-4.32-4.4q0-3.17,3.17-3.18c.71,0,1.43,0,2.14,0q3.25,0,3.25,3.34,0,4.24-4.24,4.24Zm0-1.88c1.19,0,2.38,.28,2.41-1.63,.03-2.07-1.29-1.74-2.52-1.75-1.16,0-2.36-.27-2.38,1.65-.03,2.08,1.29,1.73,2.5,1.74Z"/>
    <path class="cls-1" d="M334.35,36.33c.56,0,1.12,.04,1.67,0,1.7-.16,2.45,.47,2.42,2.29-.11,6.14,.59,5.23-5.13,5.28-3.46,.03-3.46,0-3.46-3.35,0-4.68-.31-4.2,4.51-4.22Zm-.2,2.32c-1.29-.05-2.52-.23-2.47,1.79,.04,1.96,1.32,1.55,2.43,1.58,1.26,.04,2.52,.25,2.47-1.79-.05-1.95-1.32-1.54-2.43-1.58Z"/>
    <path class="cls-5" d="M284.3,518.12c-1.1-.25-2.89,.7-3.61-.61-.92-1.66-.92-3.99-.15-5.54,1.35-2.7,4.25-1.01,6.46-1.28,1.51-.19,2.01,.96,1.85,2.37-.03,.24,0,.48,0,.71-.01,4.72,.44,4.34-4.55,4.34Zm0-5.19c-.74,.08-2.15-.51-2.12,1.54,.03,1.82,1.15,1.8,2.4,1.76,1.14-.04,2.41,.36,2.42-1.63,0-1.92-1.15-1.73-2.7-1.66Z"/>
    <path class="cls-1" d="M334.16,28.63c-4.72,0-4.32,.42-4.32-4.4,0-2.97,.16-3.14,3.05-3.17,.16,0,.32,0,.48,0,5.17-.01,6.04,1.08,5.03,6.2-.19,.96-.69,1.37-1.62,1.37-.87,0-1.75,0-2.62,0Zm.38-1.88c.76-.03,2.01,.36,2.03-1.61,.02-2.06-1.27-1.76-2.51-1.76-1.14,0-2.37-.31-2.4,1.63-.03,2.07,1.27,1.76,2.87,1.74Z"/>
    <path class="cls-1" d="M273.45,75.41c4.23,0,5.96,2.15,4.25,6.11-1.32,3.06-4.5,1.07-6.82,1.43-1.43,.22-2.06-.89-2.04-2.29,0-.16,0-.32,0-.47,.02-5.35-.46-4.76,4.6-4.78Zm-.12,1.93c-1.07,.13-2.66-.6-2.63,1.75,.03,2.05,1.21,2.03,2.66,2.03,1.45,0,2.62,0,2.65-2.04,.02-2.11-1.32-1.72-2.67-1.73Z"/>
    <path class="cls-1" d="M334.18,91.66q4.23,0,4.22,4.26,0,3.31-3.27,3.32c-.08,0-.16,0-.24,0-5.35,0-5.87-.65-5.06-6.06,.16-1.09,.69-1.53,1.72-1.52,.87,0,1.75,0,2.62,0Zm-.02,5.68c1.34,.13,2.42,.12,2.42-1.85,0-1.89-.93-2.01-2.37-1.98-1.42,.03-2.61-.11-2.57,2.01,.04,2.01,1.16,1.91,2.51,1.82Z"/>
    <path class="cls-1" d="M273.32,97.86c-4.48,0-5.48-1.35-4.45-5.88,.22-.97,.78-1.3,1.68-1.3,1.19,0,2.37,0,3.56,0q3.77,0,3.76,3.75,0,3.44-4.54,3.44Zm.05-1.9c1.01-.2,2.56,.63,2.62-1.58,.06-2.08-1.24-1.84-2.48-1.76-1.17,.08-2.81-.69-2.81,1.67,0,2.16,1.45,1.57,2.66,1.67Z"/>
    <path class="cls-1" d="M333.99,83.98q-4.15,0-4.15-4.1c0-3.48,0-3.49,3.82-3.48,5.23,.02,4.62-.58,4.8,4.69,.08,2.37-.8,3.19-3.03,2.89-.47-.06-.95,0-1.43,0Zm.16-5.68c-1.35-.1-2.49-.18-2.5,1.82,0,1.85,.86,2.07,2.34,2.01,1.39-.05,2.64,.17,2.6-1.99-.03-1.97-1.09-1.97-2.44-1.85Z"/>
    <path class="cls-1" d="M273.39,73.05c-4.61,0-5.48-1.14-4.53-5.82,.22-1.1,.88-1.38,1.86-1.37,1.74,.02,3.48,.04,5.22,0,1.45-.04,2.02,.65,1.94,2.03-.01,.24,0,.47,0,.71,0,4.97,.33,4.44-4.48,4.46Zm-.07-1.91c1.25-.08,2.67,.46,2.67-1.69,0-2.15-1.42-1.67-2.59-1.67-1.24,0-2.78-.51-2.7,1.78,.07,2.22,1.63,1.36,2.62,1.57Z"/>
    <path class="cls-2" d="M365.38,204.24c1.82,0,3.64,.03,5.45-.02,1.07-.03,1.33,.5,1.34,1.45,0,.98-.32,1.44-1.36,1.43-2.61-.04-5.22-.02-7.82,0-.6,0-1.52-.25-1.66,.49-.3,1.61-1.11,1.29-2.21,.95-1.49-.46-1.05-1.6-.99-2.53,.07-1.19,.78-1.81,2.05-1.79,1.74,.04,3.48,.01,5.21,0Z"/>
    <path class="cls-5" d="M365.41,426.52c1.74,0,3.48,.03,5.22-.01,1.02-.02,1.63,.2,1.65,1.42,.02,1.31-.6,1.61-1.74,1.59-1.98-.05-3.96-.09-5.94,.02-1.32,.07-2.99-.77-3.66,1.47-.26,.86-1.41,.08-2.12-.13-1.33-.4-.86-1.54-.84-2.4,.02-1.05,.59-1.87,1.72-1.91,1.9-.07,3.8-.02,5.7-.02,0,0,0-.02,0-.02Z"/>
    <path class="cls-2" d="M365.55,262.01c1.5,0,3-.03,4.5,.01,.94,.02,2.11-.41,2.14,1.34,.02,1.65-1,1.47-2.04,1.47-2.37,0-4.74-.02-7.1,.01-.66,0-1.64-.31-1.8,.64-.27,1.52-1.03,1.14-2.04,.88-1.34-.35-1.16-1.3-1.12-2.23,.05-1.15,.51-2.05,1.79-2.09,1.89-.06,3.79-.02,5.68-.02v-.02Z"/>
    <path class="cls-2" d="M260.71,235.25c1.74,0,3.48,.03,5.22-.01,1.04-.03,1.37,.43,1.37,1.42,0,.96-.26,1.47-1.33,1.46-2.61-.04-5.22-.02-7.83,0-.6,0-1.53-.26-1.67,.47-.31,1.55-1.05,1.42-2.19,.96-1.22-.49-1.03-1.47-.99-2.39,.06-1.2,.71-1.89,1.96-1.9,1.82,0,3.64,0,5.46,0,0,0,0,0,0-.01Z"/>
    <path class="cls-2" d="M365.54,237.63c1.75,0,3.5,.03,5.24-.01,1.04-.03,1.39,.4,1.39,1.41,0,.99-.31,1.44-1.36,1.43-2.62-.04-5.24-.03-7.86,0-.59,0-1.55-.27-1.65,.5-.24,1.78-1.2,1.16-2.17,.88-1.3-.37-1.1-1.41-1.03-2.33,.09-1.17,.64-1.91,1.97-1.88,1.83,.04,3.65,.01,5.48,.01Z"/>
    <path class="cls-7" d="M260.84,399.78c1.67,0,3.33,.04,5-.02,1.14-.04,1.51,.41,1.52,1.53,0,1.17-.48,1.51-1.57,1.49-2.38-.05-4.76-.04-7.14,0-1.02,.01-1.95-.27-2.6,1.28-.46,1.12-2.03,.23-2.62-.62-.99-1.43,.18-3.55,1.94-3.63,1.82-.08,3.65-.02,5.47-.02Z"/>
    <path class="cls-2" d="M260.5,177.53c1.82,0,3.64,.03,5.46-.01,1.07-.03,1.32,.5,1.34,1.46,.02,1.04-.41,1.38-1.41,1.37-2.61-.04-5.22-.03-7.83,0-.59,0-1.52-.27-1.64,.51-.23,1.41-.79,1.34-1.92,.97-1.4-.46-1.27-1.46-1.19-2.47,.08-1.03,.49-1.84,1.74-1.83,1.82,.01,3.64,0,5.46,0Z"/>
    <path class="cls-5" d="M284.31,532.49c-1.12-.34-2.99,.82-3.73-.77-.75-1.63-.34-3.59-.16-5.4,.07-.7,.74-.97,1.45-.97,.79,0,1.59-.01,2.38,0,5.12,.03,4.46-.52,4.65,4.57,.08,2.19-.7,2.87-2.72,2.58-.54-.08-1.11-.01-1.86-.01Zm.25-1.9c1.13-.05,2.4,.38,2.43-1.61,.03-1.88-1.06-1.79-2.3-1.74-1.19,.05-2.58-.42-2.55,1.72,.03,1.98,1.28,1.59,2.41,1.63Z"/>
    <path class="cls-5" d="M284.35,556.34c-1.11-.31-2.96,.8-3.73-.72-.82-1.61-.33-3.58-.21-5.39,.05-.73,.69-1.02,1.4-1.02,1.82,0,3.65,0,5.47,0,.92,0,1.54,.4,1.55,1.4,.02,1.51,0,3.01,0,4.52,0,.93-.57,1.22-1.4,1.21-.95,0-1.9,0-3.07,0Zm.4-5.24c-1.09,.14-2.61-.57-2.6,1.64,.01,1.67,.89,1.83,2.1,1.66,1.07-.14,2.65,.74,2.73-1.51,.06-1.8-.88-1.94-2.23-1.79Z"/>
    <path class="cls-5" d="M284.71,503.41h-.24c-3.99,0-5.7-2.19-3.94-5.89,1.33-2.79,4.39-.87,6.64-1.23,1.54-.25,1.73,1,1.68,2.21-.01,.24,0,.47,0,.71-.06,4.71,.62,4.15-4.13,4.19Zm-.15-5.24c-1.14,.03-2.39-.36-2.4,1.61-.01,1.9,1.11,1.74,2.32,1.7,1.21-.03,2.56,.37,2.52-1.74-.04-1.99-1.34-1.51-2.43-1.58Z"/>
    <path class="cls-5" d="M284.86,481.9c4.53,.06,3.81-.6,4.03,4.08,.11,2.38-.63,3.43-3.06,3.07-.39-.06-.79,0-1.18,0-4.39,0-4.3,0-4.38-4.44-.04-2.04,.59-2.98,2.7-2.71,.62,.08,1.26,.01,1.89,.01Zm.07,1.89c-1.44,.03-2.81-.4-2.77,1.72,.03,1.75,1.05,1.68,2.18,1.59,1.11-.09,2.63,.62,2.66-1.59,.02-1.87-1.05-1.8-2.07-1.72Z"/>
    <path class="cls-5" d="M284.53,474.28c-4.1,0-5.3-1.61-4.16-5.62,.16-.57,.46-1.13,.99-1.24,2.18-.43,4.38-.29,6.57-.08,.49,.05,.77,.53,.81,1.04,.04,.47,.05,.95,.05,1.42-.05,5.24,.7,4.36-4.26,4.47Zm.02-5.27c-1.1,.06-2.39-.39-2.43,1.59-.05,2.04,1.19,1.85,2.47,1.81,1.12-.04,2.39,.37,2.44-1.6,.05-2.03-1.18-1.86-2.48-1.8Z"/>
    <path class="cls-5" d="M353.89,523.44c-1.68,.42-3.94-.92-5.56,1.33-.33,.46-1.67-.02-1.78-.96-.14-1.17-.67-3.01,1.08-3.14,3.62-.28,7.28-.15,10.92-.07,1,.02,.77,1.02,.79,1.7,.02,.79-.39,1.15-1.17,1.15-1.35,0-2.69,0-4.28,0Z"/>
    <path class="cls-5" d="M353.16,483.79c1.58,0,3.16,.02,4.74,0,.97-.02,1.44,.33,1.46,1.37,.02,1.09-.35,1.6-1.5,1.57-2.05-.05-4.11-.06-6.17,0-1.08,.03-2.38-.51-2.99,1.11-.21,.56-1,.31-1.49,.06-1.12-.58-.71-1.64-.72-2.54-.01-.93,.52-1.51,1.45-1.53,1.74-.04,3.48-.01,5.22-.01,0,0,0-.01,0-.02Z"/>
    <path class="cls-5" d="M332.05,549.71c.97,.22,2.56-.62,3.14,.65,.72,1.58,.43,3.43,.12,5.14-.13,.74-.93,.75-1.58,.76-1.03,0-2.08-.09-3.09,.03-2.13,.24-2.75-.69-2.7-2.74,.11-3.83,0-3.83,4.11-3.83Zm-.1,1.81c-.93,.09-2.13-.35-2.19,1.32-.04,1.23,.46,1.73,1.66,1.62,1.01-.09,2.31,.4,2.32-1.43,.01-1.33-.68-1.6-1.79-1.51Z"/>
    <path class="cls-5" d="M331.52,569.14c-1.01-.27-2.69,.7-3.3-.76-.64-1.51-.36-3.29-.1-4.93,.12-.73,.85-.85,1.52-.85,1.11,0,2.23,.09,3.33-.03,2.04-.21,2.59,.72,2.55,2.64-.08,3.93,0,3.93-4.01,3.93Zm.15-1.82c1.1,.05,2.08,.08,2.06-1.49-.02-1.61-1.07-1.43-2.09-1.44-.98-.01-1.87-.04-1.91,1.39-.04,1.53,.85,1.63,1.93,1.55Z"/>
    <path class="cls-5" d="M331.87,490.04c.71,0,1.43,.04,2.14,0,1.16-.07,1.44,.52,1.51,1.58,.31,4.56-.05,4.84-5.58,4.58-1.41-.07-1.93-.56-1.99-1.98-.17-4.18-.22-4.18,3.92-4.17Zm.28,1.37c-1.27,.04-2.37-.23-2.41,1.41-.03,1.55,.89,1.56,1.98,1.56,1.08,0,2.04,.03,2.01-1.53-.03-1.4-.85-1.48-1.59-1.43Z"/>
    <path class="cls-1" d="M246.38,149.71c0,3.48-2.81,5.31-5.94,3.9-.46-.21-.56-.48-.41-.91,.31-.94,.91-1.5,1.94-1.37,1.7,.21,2.3-.55,2.09-2.18-.08-.59-.15-1.11-.86-1.21-.75-.11-1.19-.43-.85-1.27,.25-.62,.62-1.01,1.38-1.1,2.02-.23,2.66,.72,2.66,4.14Z"/>
    <path class="cls-5" d="M331.68,509.07c-3.64,0-4.59-1.29-3.68-4.95,.18-.71,.53-1.16,1.26-1.17,1.74-.03,3.47-.02,5.21,0,.67,0,.99,.4,1.01,1.05,.01,.39,.02,.79,.02,1.18q.06,3.89-3.82,3.89Zm.02-4.77c-.9,.18-2.37-.51-2.36,1.52,0,1.7,.99,1.86,2.3,1.85,1.35,0,2.51-.02,2.48-1.91-.03-1.82-1.29-1.37-2.42-1.46Z"/>
    <path class="cls-5" d="M332.18,515.79c.93,.25,2.63-.65,3.07,.56,.51,1.39,.21,3.11,.14,4.68-.03,.6-.61,.89-1.22,.9-1.58,.01-3.16,.01-4.74,0-.98,0-1.42-.56-1.44-1.5-.01-.63,.06-1.27-.03-1.9-.32-2.25,.71-3.05,2.84-2.76,.39,.05,.79,0,1.37,0Zm-.38,1.4c-1.02,.14-2.45-.49-2.44,1.52,0,1.71,1,1.85,2.31,1.84,1.36,0,2.5-.04,2.47-1.92-.03-1.83-1.3-1.35-2.34-1.45Z"/>
    <path class="cls-5" d="M331.79,547.74c-3.8,0-4.63-1.07-3.79-4.88,.15-.7,.44-1.22,1.2-1.24,1.66-.04,3.33-.04,4.99-.01,.87,.01,1.26,.56,1.3,1.39,.01,.32,0,.63,.02,.95q.08,3.79-3.71,3.79Zm0-1.4c1.06-.08,2.32,.37,2.34-1.46,.03-1.88-1.13-1.9-2.48-1.91-1.32,0-2.3,.15-2.3,1.85,0,2.01,1.44,1.37,2.44,1.51Z"/>
    <path class="cls-5" d="M331.64,534.83c-3.55,0-4.92-1.62-3.52-4.97,1.08-2.57,3.81-.71,5.75-1.12,1.21-.26,1.67,.62,1.63,1.76,0,.08,0,.16,0,.24q.2,4.1-3.86,4.1Zm.12-1.42c1.26,.07,2.32-.02,2.37-1.75,.05-1.97-1.3-1.56-2.41-1.57-1.12-.01-2.45-.36-2.38,1.59,.06,1.75,1.15,1.79,2.42,1.73Z"/>
    <path class="cls-1" d="M379.41,143.84c0-.71,0-1.42,0-2.13,0-.84,.13-1.58,1.13-1.81,1-.23,1.65,.2,2.13,1.05,.29,.51,.67,1.05-.26,1.21-1.63,.27-1.09,1.51-1.06,2.42,.05,1.36,1.2,.91,1.99,1.01,.54,.07,1.13,.03,1.61,.25,.6,.27,.95,.94,.88,1.56-.09,.78-.85,.47-1.36,.53-.31,.04-.63,0-.95,0q-4.12,0-4.12-4.08Z"/>
    <path class="cls-5" d="M263.08,464.14c-2.08,.33-3.43,.04-3.38-2.7,.05-2.32,.78-3.01,3.03-2.91,3.64,.16,3.48,.06,3.7,2.92,.22,2.78-1.28,3-3.36,2.69Zm.02-1.74c.99,0,1.91,.1,1.91-1.22,0-1.35-.94-1.21-1.8-1.21-.99,0-2.01,.02-1.96,1.4,.05,1.39,1.19,.91,1.85,1.03Z"/>
    <path class="cls-1" d="M288.7,77.8c-1.9,.42-2.98-.25-2.77-2.84,.23-2.85,.06-2.86,3.52-2.86,3.17,0,3.18,.02,3.18,2.92q0,2.78-3.92,2.78Zm.62-3.84c-.95,.01-1.9-.14-1.9,1.21,0,1.37,.98,1.19,1.83,1.19,.92,0,2.03,.23,1.93-1.31-.09-1.39-1.14-.99-1.86-1.09Z"/>
    <path class="cls-5" d="M246.45,415.33c-.11,1.02-.12,2.06-.35,3.05-.22,.96-1.08,1.21-1.88,.88-.87-.36-1.25-1.04-.78-2.08,1.15-2.52,.97-2.9-1.52-3.58-.84-.23-1.21-.72-1.16-1.53,.05-.79,.7-.69,1.25-.75,3.95-.43,4.35-.07,4.44,4.01Z"/>
    <path class="cls-1" d="M289.25,66.8c-2.89,0-4.47-2.71-3.15-5.1,.28-.5,.72-.57,1.19-.58,.71-.02,1.43-.01,2.14-.01,2.91,0,4.31,2.12,3.08,4.79-.73,1.57-2.26,.64-3.26,.91Zm.13-4.25c-.91,.04-1.94-.22-1.98,1.3-.04,1.35,.66,1.55,1.76,1.53,1.14-.02,2.05-.17,2.04-1.63-.01-1.35-.96-1.18-1.82-1.2Z"/>
    <path class="cls-1" d="M358.9,92.89c.01,.82-.45,1.05-1.2,1.12-2.6,.25-5.31-.65-7.82,.87-.61,.37-1.36-.36-1.38-1.21-.02-.9,.19-1.93,1.27-1.97,2.77-.1,5.54-.05,8.31-.02,.73,0,.84,.6,.82,1.2Z"/>
    <path class="cls-5" d="M263,482.28c-2.13,.38-3.29-.09-3.31-2.77-.02-2.71,1.23-2.94,3.35-2.87,3.39,.12,3.21,.05,3.43,2.97,.22,2.87-1.41,2.92-3.47,2.66Zm.43-1.41c.94,.16,1.61-.14,1.58-1.47-.03-1.52-1.07-1.26-1.97-1.26-.84,0-1.79-.19-1.81,1.17-.02,1.47,.9,1.62,2.2,1.57Z"/>
    <path class="cls-5" d="M379.4,420.07c0-.71,.02-1.42,0-2.13-.06-1.3,.56-1.89,1.85-1.84,.87,.03,1.74-.05,2.6,.02,.54,.05,1.48-.39,1.46,.61-.01,.77-.49,1.43-1.43,1.65-2.85,.66-2.84,.69-1.82,3.76,.3,.89-.09,1.62-.91,1.89-.88,.29-1.59-.12-1.68-1.11-.09-.94-.02-1.89-.02-2.84-.01,0-.03,0-.04,0Z"/>
    <path class="cls-5" d="M263.82,470.98c-2.31-.07-4.26,.65-4.13-2.52,.1-2.48,1.06-2.88,3.17-2.8,3.55,.13,3.35,.05,3.61,2.78,.27,2.85-1.4,2.66-2.65,2.55Zm-.61-1.46c.71-.06,1.83,.29,1.79-1.28-.03-1.23-.88-1.16-1.66-1.1-.85,.06-2.05-.45-2.1,1.14-.04,1.36,.9,1.25,1.97,1.24Z"/>
    <path class="cls-1" d="M289.23,95.95c-3.3,0-3.88-.77-3.25-4.13,.14-.78,.48-1.13,1.23-1.14,.79,0,1.59-.02,2.38-.02,2.84,0,3.92,1.55,2.97,4.24-.35,.98-.51,1.03-3.32,1.04Zm.07-1.43c.86-.05,1.87,.21,1.89-1.16,.03-1.35-.92-1.25-1.79-1.23-.89,.02-2.03-.29-1.97,1.27,.05,1.4,1.09,1.04,1.87,1.12Z"/>
    <path class="cls-1" d="M289.35,88.79c-3.22,0-4.27-1.47-3.36-4.39,.21-.67,.62-.86,1.23-.86,.79,0,1.59-.01,2.38-.01,2.8,0,3.94,1.62,2.93,4.25-.65,1.7-2.2,.73-3.18,1.01Zm-.15-3.84c-.66,.13-1.72-.29-1.78,1.12-.05,1.33,.84,1.31,1.74,1.27,.88-.04,2.03,.32,2.02-1.23,0-1.38-1.03-1.11-1.98-1.17Z"/>
    <path class="cls-5" d="M384.45,387.95c1.1,0,2.2,0,3.31,0,.8,0,1.12,.42,1.11,1.18,0,.8-.42,1.12-1.18,1.12-1.42,0-2.83-.02-4.25,.02-.68,.02-1.48-.24-2,.4-.57,.7-1.2,.69-1.87,.28-.53-.33-.62-.9-.49-1.47,.19-.85,.69-1.45,1.59-1.49,1.26-.06,2.52-.02,3.78-.02,0,0,0-.01,0-.02Z"/>
    <path class="cls-5" d="M246.34,384.41c0,1.03-.73,1-1.46,1.08-2.26,.25-4.65-.7-6.8,.88-.52,.38-1.39-.16-1.52-1.03-.14-.97,.25-1.95,1.19-2.01,2.58-.18,5.18-.13,7.78-.11,.71,0,.83,.6,.82,1.19Z"/>
    <path class="cls-5" d="M384.43,404.19c1.03,0,2.06,.01,3.09,0,.83-.01,1.37,.24,1.36,1.2-.02,1.01-.66,1.12-1.44,1.11-1.35-.01-2.69-.03-4.04,0-.68,.02-1.46-.24-2,.42-.57,.7-1.22,.66-1.87,.22-.44-.3-.53-.78-.38-1.27,.24-.77,.51-1.58,1.49-1.62,1.26-.06,2.53-.01,3.8-.01v-.04Z"/>
    <path class="cls-5" d="M241.77,366.92c1.11,0,2.22,0,3.33,0,.73,0,1.21,.22,1.25,1.06,.04,.93-.42,1.19-1.28,1.29-2.27,.28-4.65-.72-6.86,.81-.62,.43-1.52-.42-1.61-1.3-.1-.93,.25-1.78,1.37-1.84,1.26-.07,2.54-.02,3.8-.02,0,0,0,0,0,0Z"/>
    <path class="cls-5" d="M384.19,371.7c1.19,0,2.38,0,3.57,0,.81,0,1.12,.43,1.12,1.19,0,.8-.4,1.14-1.18,1.14-1.43,0-2.85-.02-4.28,.02-.68,.02-1.48-.28-1.99,.42-.52,.69-1.06,.55-1.64,.16-.59-.39-.84-.96-.65-1.65,.2-.73,.6-1.28,1.49-1.27,1.19,.01,2.38,0,3.57,0Z"/>
    <path class="cls-1" d="M384.15,220.04c1.19,0,2.38-.04,3.56,.01,.73,.03,1.13,.52,1.15,1.26,.02,.87-.54,1.04-1.25,1.04-1.51,0-3.01,0-4.52,.01-.54,0-1.24-.21-1.54,.33-.41,.74-.76,1.17-1.61,.59-.75-.51-.55-1.26-.52-1.94,.04-.86,.58-1.29,1.4-1.32,1.11-.04,2.22,0,3.33,0,0,0,0,.02,0,.02Z"/>
    <path class="cls-1" d="M241.88,215.27c1.1,0,2.21-.04,3.31,.01,.73,.04,1.13,.51,1.15,1.25,.03,.85-.52,1.05-1.23,1.05-1.5,0-3,0-4.5,.01-.54,0-1.23-.2-1.56,.29-.42,.65-.68,1.25-1.59,.66-.67-.43-.57-1.05-.59-1.68-.03-1.01,.66-1.46,1.46-1.55,1.17-.12,2.36-.03,3.54-.03,0,0,0-.02,0-.03Z"/>
    <path class="cls-1" d="M384.22,203.79c1.03,0,2.06,0,3.09,0,.91,0,1.57,.34,1.54,1.38-.03,1.07-.87,.88-1.56,.97-2.21,.26-4.54-.67-6.65,.83-.56,.4-1.19-.15-1.23-.96-.04-.99-.07-2.04,1.24-2.16,1.18-.11,2.38-.02,3.56-.02,0-.01,0-.02,0-.03Z"/>
    <path class="cls-1" d="M241.96,243.41c1.03,0,2.06-.03,3.09,0,.84,.03,1.31,.51,1.28,1.38-.03,.9-.71,.86-1.36,.94-2.29,.27-4.7-.68-6.89,.84-.58,.4-1.17-.2-1.2-1-.04-.99-.04-2.03,1.28-2.14,1.26-.1,2.53-.02,3.8-.02,0,0,0,0,0-.01Z"/>
    <path class="cls-1" d="M241.57,199.02c1.11,0,2.22-.01,3.33,0,.82,.01,1.39,.37,1.43,1.25,.05,1.04-.71,1.02-1.46,1.09-2.3,.22-4.71-.65-6.88,.87-.43,.3-1.07-.18-1.1-.88-.04-.95-.19-2.08,1.11-2.26,1.17-.16,2.37-.03,3.56-.03,0-.01,0-.03,0-.04Z"/>
    <path class="cls-1" d="M384.35,248.19c1.11,0,2.22-.03,3.33,.01,.74,.03,1.15,.49,1.19,1.23,.04,.85-.51,1-1.23,1.08-2.37,.25-4.87-.68-7.12,.86-.45,.31-1.06-.19-1.09-.89-.05-.96-.17-2.08,1.13-2.24,1.25-.15,2.53-.03,3.8-.03v-.02Z"/>
    <path class="cls-1" d="M241.98,237.64c.95,0,1.89,0,2.84,0,.71,0,1.52-.07,1.51,1,0,1.03-.68,1.33-1.57,1.34-1.34,0-2.68,0-4.02,.02-.61,.01-1.31-.19-1.79,.35-.5,.57-1,.75-1.62,.23-.57-.47-.49-1.13-.41-1.76,.09-.73,.56-1.13,1.28-1.15,1.26-.03,2.52,0,3.78,0,0,0,0-.02,0-.03Z"/>
    <path class="cls-1" d="M241.92,182.78c1.03,0,2.05,0,3.08,0,.66,0,1.31,.04,1.33,.94,.02,.87-.45,1.34-1.28,1.37-1.34,.04-2.68,0-4.02,.04-.69,.02-1.49-.24-2.04,.32-.52,.52-1,.81-1.62,.31-.65-.52-.56-1.27-.41-1.97,.16-.74,.73-.99,1.42-.99,1.18-.01,2.37,0,3.55,0,0,0,0,0,0,0Z"/>
    <path class="cls-1" d="M384.38,242.42c1.03,0,2.05,0,3.08,0,.77,0,1.48,.1,1.41,1.11-.06,.87-.64,1.21-1.45,1.22-1.34,.01-2.68-.01-4.02,.02-.68,.02-1.45-.23-1.99,.43-.42,.51-.9,.61-1.45,.24-.62-.42-.58-1.07-.53-1.71,.05-.72,.45-1.22,1.17-1.25,1.26-.06,2.52-.02,3.78-.02,0-.01,0-.03,0-.04Z"/>
    <path class="cls-1" d="M384.51,187.55c.95,0,1.89,0,2.84,0,.71,0,1.52-.07,1.51,1,0,1.03-.68,1.33-1.58,1.33-1.34,0-2.68,0-4.02,.02-.61,.01-1.31-.19-1.79,.35-.5,.57-1,.75-1.62,.23-.57-.47-.49-1.13-.41-1.76,.09-.73,.56-1.13,1.28-1.15,1.26-.03,2.52,0,3.78,0,0,0,0-.02,0-.03Z"/>
    <path class="cls-1" d="M277.84,86.21c.07,.82-.49,1.03-1.32,1.12-1.99,.2-4.06-.58-5.98,.78-.54,.38-1.55-.22-1.66-1.21-.1-.85,.06-1.78,1.06-1.82,2.38-.11,4.76-.05,7.14-.02,.6,0,.74,.51,.77,1.16Z"/>
    <path class="cls-1" d="M273.8,44.92c.94,0,1.89,0,2.83,0,.75,0,1.19,.28,1.21,1.09,.02,.76-.28,1.15-1.08,1.22-2.12,.2-4.34-.52-6.38,.83-.43,.29-1.4-.27-1.49-1.13-.1-1,.45-1.77,1.38-1.9,1.15-.17,2.35-.04,3.53-.04,0-.02,0-.04,0-.07Z"/>
    <path class="cls-5" d="M241.88,399.43c1.11,0,2.22,0,3.33,0,.8,0,1.14,.41,1.12,1.19-.02,.65-.28,1-.97,1.1-2.36,.35-4.83-.68-7.14,.74-.49,.3-.77-.8-.82-1.42-.06-.72-.14-1.54,.91-1.58,1.19-.05,2.38-.01,3.57-.01,0,0,0,0,0,0Z"/>
    <path class="cls-1" d="M290.49,101.73c-1.18,1.17-2.52,.72-3.58,1.22-.16,.07-.57-.04-.63-.17-.6-1.36-.35-2.81-.19-4.2,.11-.98,1.08-.72,1.75-.75,.95-.04,1.91,.05,2.85-.02,1.41-.11,2.13,.4,1.92,1.88-.09,.65,.35,1.65-.63,1.8-.96,.15-.62-.85-.83-1.38-.58-1.51-1.88-.74-2.87-.8-.87-.05-.91,.73-.85,1.39,.1,1.23,1.08,.89,1.81,.96,.31,.03,.62,.03,1.24,.06Z"/>
    <path class="cls-5" d="M241.55,297.25c1.27,0,2.53-.01,3.8,0,.68,.01,1,.4,.95,1.08-.04,.59-.43,.82-.95,.83-1.58,.02-3.17,0-4.75,.04-.59,.02-1.38-.29-1.68,.47-.34,.85-.78,.83-1.45,.46-.7-.39-.61-1.04-.61-1.66,0-.75,.35-1.2,1.13-1.21,1.19-.01,2.37,0,3.56,0Z"/>
    <path class="cls-5" d="M388.83,319.28c-.06,.9-.72,.91-1.37,.92-1.43,0-2.85-.02-4.28,.02-.6,.02-1.38-.28-1.71,.44-.35,.77-.72,.9-1.44,.52-.73-.38-.64-1.01-.64-1.64,0-.72,.28-1.27,1.08-1.28,2.45-.03,4.91-.02,7.37-.02,.66,0,1.03,.34,1,1.03Z"/>
    <path class="cls-1" d="M241.68,231.9c1.19,0,2.37,0,3.56,0,.62,0,1.08,.23,1.08,.95,0,.72-.46,.95-1.08,.95-1.5,.01-3-.01-4.5,.03-.67,.02-1.52-.29-1.87,.59-.3,.74-.69,.71-1.28,.41-.83-.41-.71-1.14-.69-1.85,.02-.64,.33-1.06,1-1.07,1.26-.02,2.53,0,3.79,0h0Z"/>
    <path class="cls-5" d="M241.79,350.69c1.19,0,2.38-.02,3.57,0,.53,0,.9,.27,.94,.85,.05,.68-.28,1.06-.95,1.08-1.35,.03-2.7-.04-4.04,.05-.92,.06-2.09-.54-2.63,.9-.24,.62-.81,.2-1.22,0-.74-.35-.59-1.04-.59-1.66,0-.75,.35-1.21,1.13-1.22,1.27-.02,2.54,0,3.8,0Z"/>
    <path class="cls-5" d="M384.24,355.44c1.11,0,2.22,0,3.33,0,.69,0,1.29,.14,1.26,1.02-.03,.89-.68,.94-1.34,.95-1.43,0-2.85-.02-4.28,.02-.6,.02-1.38-.29-1.72,.42-.35,.72-.68,.95-1.43,.55-.83-.45-.67-1.17-.65-1.86,.03-.81,.55-1.08,1.27-1.08,1.19,0,2.38,0,3.56,0h0Z"/>
    <path class="cls-5" d="M242.38,315.41c-1.18,.41-2.83-.78-3.9,1.08-.29,.51-1.39-.04-1.54-.82-.15-.79-.44-2.02,.81-2.1,2.6-.15,5.22-.06,7.83-.03,.59,0,.76,.49,.72,1.02-.04,.58-.41,.83-.94,.84-.95,.02-1.9,0-2.98,0Z"/>
    <path class="cls-1" d="M384.08,236.67c1.18,0,2.37,0,3.55,0,.7,0,1.28,.19,1.22,1.06-.05,.73-.58,.86-1.18,.86-1.5,0-3-.01-4.5,.02-.6,.01-1.37-.26-1.7,.46-.35,.77-.74,.9-1.45,.49-.7-.4-.61-1.03-.61-1.66,0-.74,.32-1.21,1.11-1.22,1.18-.01,2.37,0,3.55,0,0,0,0,0,0-.01Z"/>
    <path class="cls-1" d="M384.39,171.31c1.03,0,2.06,0,3.1,0,.65,0,1.33,0,1.36,.92,.03,.9-.62,.99-1.29,.99-1.43,0-2.86-.02-4.29,.02-.6,.01-1.36-.26-1.75,.4-.36,.61-.59,1.08-1.42,.63-.71-.39-.72-.98-.67-1.63,.06-.86,.56-1.29,1.39-1.31,1.19-.03,2.38,0,3.57,0,0,0,0,0,0-.01Z"/>
    <path class="cls-1" d="M384.28,264.81c1.03,0,2.06-.01,3.08,0,.72,0,1.53-.04,1.48,1.03-.04,.91-.76,.82-1.39,.89-2.28,.27-4.69-.67-6.87,.85-.57,.4-1.16-.23-1.17-1.02,0-.8-.1-1.69,1.07-1.72,1.26-.04,2.53,0,3.8,0,0,0,0-.01,0-.02Z"/>
    <path class="cls-5" d="M384.3,302.01c1.11,0,2.22,0,3.33,0,.73,0,1.26,.23,1.2,1.09-.05,.75-.6,.84-1.19,.84-1.43,0-2.86-.02-4.29,.02-.68,.02-1.45-.24-1.99,.45-.49,.62-1.09,.66-1.65,.2-.49-.4-.33-1.02-.3-1.57,.04-.83,.61-1.03,1.31-1.03,1.19,0,2.38,0,3.57,0Z"/>
    <path class="cls-1" d="M241.77,260.04c1.03,0,2.06,0,3.08,0,.73,0,1.52-.01,1.46,1.05-.05,.9-.78,.8-1.4,.87-2.29,.25-4.68-.63-6.87,.85-.58,.39-1.14-.26-1.16-1.04-.01-.81-.06-1.68,1.09-1.71,1.26-.03,2.53,0,3.79,0,0,0,0-.01,0-.02Z"/>
    <path class="cls-1" d="M277.8,61.22c-.12,.9-.83,.75-1.44,.85-2,.33-4.27-.89-6.03,1.14-.3,.35-1.25-.16-1.41-.88-.17-.79-.19-1.84,.77-1.99,2.51-.4,5.06-.25,7.59-.07,.44,.03,.54,.52,.52,.94Z"/>
    <path class="cls-1" d="M241.76,166.56c1.03,0,2.05-.01,3.08,0,.62,0,1.08,.23,1.06,.96-.02,.73-.5,.91-1.11,.92-1.34,.01-2.68,0-4.02,.03-.6,.02-1.4-.27-1.75,.37-.42,.77-.79,1.11-1.61,.55-.66-.45-.56-1.09-.48-1.7,.11-.87,.73-1.15,1.53-1.15,1.1,0,2.21,0,3.31,0,0,0,0,0,0,.01Z"/>
    <path class="cls-1" d="M277.8,101.26c-.08,.9-.76,.83-1.39,.89-2.07,.19-4.25-.54-6.19,.84-.41,.29-1.14,.13-1.29-.6-.16-.8-.18-1.82,.77-1.97,2.5-.39,5.03-.23,7.54-.07,.44,.03,.57,.48,.56,.91Z"/>
    <path class="cls-5" d="M284.78,491c.95,0,1.9,0,2.85,0,.59,0,1.11,.12,1.16,.86,.05,.71-.32,.99-.98,1.03-2.16,.13-4.38-.38-6.42,.88-.46,.29-1.02-.24-1.06-.93-.05-.87,.15-1.67,1.14-1.77,1.09-.11,2.21-.03,3.31-.03,0-.02,0-.03,0-.05Z"/>
    <path class="cls-1" d="M334.12,46.32c.95,0,1.9,0,2.85,0,.64,0,1.34-.02,1.36,.9,.03,.92-.65,.9-1.3,.97-1.97,.23-4.05-.58-5.94,.8-.53,.39-1.14-.34-1.21-1.05-.08-.73-.1-1.53,.92-1.58,1.1-.06,2.21-.01,3.32-.01,0,0,0-.01,0-.02Z"/>
    <path class="cls-1" d="M334.33,86.4c.87,0,1.74-.01,2.61,0,.63,.01,1.34-.04,1.39,.87,.05,.91-.61,.92-1.27,1-1.97,.23-4.05-.6-5.93,.79-.54,.4-1.15-.31-1.23-1.03-.08-.72-.13-1.54,.89-1.6,1.18-.07,2.37-.02,3.55-.02,0,0,0-.01,0-.02Z"/>
    <path class="cls-1" d="M334.43,15.82c.95,0,1.9,0,2.85,0,.62,0,1.09,.21,1.07,.95-.02,.58-.35,.84-.89,.88-2.22,.19-4.52-.45-6.64,.87-.52,.32-.93-.36-.95-1.01-.03-.9,.25-1.61,1.25-1.67,1.1-.06,2.21-.01,3.32-.01,0,0,0-.01,0-.02Z"/>
    <path class="cls-5" d="M284.74,520.1c.86,0,1.73,0,2.59,0,.71,.01,1.5-.05,1.46,1.03-.04,.92-.74,.83-1.36,.89-1.9,.19-3.89-.52-5.68,.8-.52,.39-1.22-.16-1.36-.89-.17-.88,.09-1.66,1.06-1.76,1.09-.12,2.19-.03,3.29-.03,0-.02,0-.03,0-.05Z"/>
    <path class="cls-5" d="M284.82,505.74c.95,0,1.89,0,2.84,0,.6,0,1.1,.14,1.14,.88,.04,.71-.34,.96-.99,1.02-2.12,.21-4.33-.51-6.36,.82-.46,.31-1.09-.46-1.1-1.2,0-.8,.31-1.43,1.18-1.48,1.1-.07,2.2-.02,3.3-.02v-.03Z"/>
    <path class="cls-5" d="M284.77,543.97c1.02,0,2.04-.01,3.07,0,.68,0,.99,.38,.95,1.06-.04,.6-.45,.74-.96,.81-2.11,.27-4.33-.59-6.35,.84-.48,.34-1.1-.43-1.14-1.15-.05-.8,.27-1.45,1.13-1.51,1.09-.08,2.2-.02,3.3-.02,0,0,0-.02,0-.03Z"/>
    <path class="cls-1" d="M334.47,71.15c.95,0,1.91-.01,2.86,0,.65,0,1.06,.31,1,1.02-.04,.6-.44,.77-.96,.82-2.14,.22-4.39-.52-6.43,.84-.42,.28-.97-.39-1.05-1.01-.1-.81,.16-1.52,1.01-1.61,1.18-.12,2.38-.03,3.57-.03,0-.01,0-.03,0-.04Z"/>
    <path class="cls-1" d="M334.33,31.07c.87,0,1.75-.01,2.62,0,.63,.01,1.35-.04,1.38,.89,.04,.92-.64,.91-1.29,.99-1.98,.23-4.08-.6-5.95,.82-.44,.34-1.04-.25-1.16-.86-.17-.89,.07-1.67,1.07-1.77,1.1-.11,2.22-.02,3.33-.02,0-.01,0-.03,0-.04Z"/>
    <path class="cls-5" d="M383.51,410.33c.95,0,1.9,0,2.85,0,.6,0,1.12,.12,1.11,.89-.01,.69-.42,1-1.06,1.01-1.11,.02-2.22,0-3.33,.03-.6,.02-1.36-.24-1.67,.53-.28,.7-.64,.76-1.27,.48-.87-.39-.74-1.12-.72-1.82,.02-.63,.32-1.07,1-1.09,1.03-.02,2.06,0,3.09,0,0,0,0-.02,0-.02Z"/>
    <path class="cls-5" d="M288.77,477.65c-.07,.92-.77,.8-1.39,.89-1.89,.27-3.92-.68-5.69,.81-.45,.38-1.09-.14-1.27-.72-.23-.73-.15-1.64,.67-1.78,2.35-.4,4.73-.21,7.1-.09,.46,.02,.58,.46,.57,.89Z"/>
    <path class="cls-1" d="M363.43,118.05c-.85,.49-1.77,.1-2.31,1.14-.64,1.21-1.96,.67-2.62-.02-.95-.99-.78-2.32,0-3.44,.71-1.03,1.55-.45,2.24,.05,.88,.64,1.68,1.4,2.7,2.26Z"/>
    <path class="cls-5" d="M332.36,557.87c.83,.4,2.91-.84,2.92,.8,0,1.85-2.1,.67-3.24,.96-.73,.19-1.59-.2-2.23,.47-.43,.46-.95,.61-1.47,.25-.44-.31-.37-.84-.32-1.31,.08-.73,.55-1.13,1.26-1.16,.94-.04,1.89,0,3.08,0Z"/>
    <path class="cls-5" d="M332.07,498.18c.92,.5,3.2-1.03,3.19,.98,0,1.63-2.21,.48-3.4,.78-.66,.17-1.39-.13-2.01,.42-.83,.74-1.52,.31-1.78-.55-.26-.88,.17-1.56,1.17-1.62,.86-.05,1.73-.01,2.82-.01Z"/>
    <path class="cls-5" d="M332.02,480.5c.71,0,1.42,0,2.13,0,.66,0,1.32,.05,1.29,.97-.02,.75-.56,.82-1.15,.87-1.67,.16-3.42-.41-5.02,.71-.4,.28-1.21-.25-1.28-1.03-.06-.71,.23-1.34,.95-1.42,1.01-.11,2.05-.03,3.07-.03v-.07Z"/>
    <path class="cls-5" d="M335.45,524.64c-.04,1.08-.71,1.02-1.34,1.09-1.58,.18-3.25-.5-4.74,.7-.38,.31-1.09-.15-1.28-.7-.22-.64-.1-1.45,.59-1.58,2.08-.4,4.21-.25,6.31-.07,.2,.02,.36,.43,.46,.56Z"/>
    <path class="cls-5" d="M332.35,536.88c.79,.49,2.96-1.02,2.93,.96-.02,1.56-2.07,.54-3.18,.78-.81,.17-1.65-.11-2.44,.55-.68,.58-1.37,.09-1.59-.68-.23-.78,.11-1.48,.96-1.58,1.01-.12,2.04-.03,3.33-.03Z"/>
    <path class="cls-5" d="M331.92,511.05c.79,0,1.57,0,2.36,0,.58,0,1.12,.09,1.16,.84,.03,.74-.45,.89-1.06,.94-1.74,.14-3.57-.39-5.21,.73-.27,.18-1.06-.25-1.13-.94-.08-.81,.19-1.45,1.07-1.53,.93-.08,1.88-.02,2.83-.02,0-.01,0-.02,0-.03Z"/>
    <path class="cls-1" d="M276.41,105.95c-1.44,.94-2.75,1.88-4.39,1.9-.47,0-.98,0-1.2,.54-.29,.72-.82,1.38-1.57,1.06-.77-.33-.35-1.27-.37-1.94-.04-.92,.42-1.53,1.4-1.55,2.05-.02,4.09,0,6.14,0Z"/>
    <path class="cls-5" d="M242.4,407.49c-1-.4-3.34,.91-3.34-1.03,0-1.87,2.27-.58,3.5-.89,.75-.19,1.58-.03,2.37-.02,.66,0,1.33,.02,1.36,.93,.03,.9-.59,1.01-1.27,1.01-.79,0-1.59,0-2.62,0Z"/>
    <path class="cls-1" d="M289.78,79.31c.71,.33,2.6-.81,2.65,.83,.05,1.77-1.83,.69-2.83,.95-.67,.18-1.42,.08-2.09,.26-.67,.18-1.29,.4-1.47-.51-.16-.81,.25-1.42,1.09-1.52,.78-.09,1.57-.02,2.65-.02Z"/>
    <path class="cls-5" d="M331.97,485.29c.87,0,1.74-.02,2.62,0,.43,.01,.8,.2,.78,.69-.02,.48-.41,.61-.83,.65-1.83,.19-3.78-.5-5.47,.87-.33,.27-.94-.05-1.03-.65-.1-.7,.1-1.38,.85-1.47,1.01-.13,2.05-.03,3.08-.03v-.07Z"/>
    <path class="cls-1" d="M289.64,68.27c.78,.36,2.67-.76,2.7,.77,.03,1.27-1.82,.43-2.81,.65-.67,.14-1.43-.18-2.01,.39-.67,.65-1.18,.36-1.41-.36-.26-.79,0-1.42,.97-1.45,.78-.03,1.57,0,2.57,0Z"/>
    <path class="cls-5" d="M263.35,454.75c.8,.38,2.67-.74,2.71,.77,.03,1.11-1.86,.37-2.87,.55-.69,.12-1.4,0-2.08,.33-.57,.28-1.12,.22-1.24-.55-.1-.66,.24-1.07,.91-1.09,.79-.03,1.57,0,2.56,0Z"/>
    <path class="cls-5" d="M263.53,472.84c.76,.36,2.57-.7,2.62,.66,.05,1.39-1.74,.55-2.7,.76-.68,.15-1.42,.06-2.09,.23-.63,.17-1.31,.53-1.47-.4-.16-.9,.52-1.22,1.32-1.25,.71-.02,1.41,0,2.31,0Z"/>
    <path class="cls-5" d="M260.22,449.64c.73,1.5,2.47,1.64,3.54,2.76-3.77,.92-4.21,.59-3.54-2.76Z"/>
    <path class="cls-1" d="M246.18,139.63c.09,.25,.14,.32,.15,.39,.09,1.09,.18,2.2-.83,2.96-.26,.2-.77,.09-.79-.19-.11-1.29,.5-2.26,1.48-3.17Z"/>
    <path class="cls-1" d="M355.96,110.08c1.05-.15,2.17-.84,2.85,.36,.12,.21,.01,.82-.11,.86-1.23,.37-1.88-.66-2.74-1.22Z"/>
  </g>
  <g>
    <polyline class="cls-3" points="374.3 208.29 374.3 149.29 428.66 149.3 428.66 110.4 374.3 110.4 374.3 55.29 433.99 55.29 433.99 76.67 473.36 76.67 473.36 16.71 315.72 16.71 315.72 55.29 330.48 55.29 330.48 208.29 315.77 208.29 315.77 247.19 388.53 247.19 388.53 208.29 374.3 208.29"/>
    <path class="cls-3" d="M297.3,160.09V55.28h14.57V16.71h-72.92V55.28h14.22v91.78c0,38.47-4.45,56.95-32.07,56.95s-32.07-18.49-32.07-56.95V55.28h14.11V16.71h-73.03V55.28h14.46v104.81c0,22.89,0,41.64,10.8,58.49,12.07,19.07,33.97,31.2,65.73,31.2,56.2,0,76.2-29.29,76.2-89.69"/>
  </g>
  <path class="cls-3" d="M0,509.49c21.53-.58,49.01-1.16,70.5-1.53,0,0,2.71-.05,2.71-.05,4.28,.26,8.06-1.8,9.68-5.02,.83-2.32,5.13-12.87,5.9-14.91,0,0,.3-.74,.3-.74,0,0,.15-.37,.15-.37,.41-1.12,1.29-2.1,2.38-2.58,2.63-1.21,5.77,.3,6.52,3.19,0,0,.57,1.5,.57,1.5,1.49,4.06,9.81,25.7,11.13,29.26,0,0,.07,.19,.07,.19,0,.02,.03,.09,.03,.07l-.02-.05c-.37-.74-1.17-.87-1.69-.16-.06,.08-.09,.17-.13,.25-.05,.2,.02-.09,.04-.18,.12-.44,.39-1.88,.51-2.35,2.81-12.8,7.5-34.14,10.32-46.96,0,0,.34-1.57,.34-1.57,0,0,.09-.39,.09-.39,0,0,.04-.2,.04-.2,1.08-5.13,8.62-5.05,9.56,.14,.07,.31,.16,1.04,.22,1.37,3.15,20.57,9.45,63.05,12.6,84.05,0,0-.58-1.54-.58-1.54-.39-.58-.7-.72-.89-.82-1.37-.63-3.27,.79-3.54,2.36,0,0,.02-.11,.02-.11l.09-.43c1.3-6.1,3.76-17.75,5.09-23.98,1.36-6.43,6.37-29.98,7.64-35.97,0,0,.18-.86,.18-.86l.05-.21c.16-.88,.91-2.31,1.8-2.87,2.67-2.02,6.65-.58,7.43,2.62,3,9.49,10,32.03,13.02,41.78,0,0-7.28-.65-7.28-.65,.03-.05,10.47-20,10.49-20.05,1.2-1.85,3.24-2.89,5.15-3.75,1.44-.64,3.38-.91,5.05-.84,9.99-.09,23.85-.21,33.82-.31,1.67,.01,3.01-1.34,4.22-2.34,1.44-1.1,2.06-2.93,2.48-4.62,0,0,1.04-3.62,1.04-3.62l8.28-28.93,.52-1.81,.26-.9,.13-.45c.89-3.85,6.5-4.53,8.28-.98,.36,.62,.45,1.3,.55,1.98,2.51,15.86,10.09,66.14,12.61,82.77,0,0,.56,3.72,.56,3.72,0,0,.03,.23,.03,.23,.01,.08,.03,.18,.02,.12-.04-.22-.38-.55-.57-.47-.09,0-.41,.24-.41,.43,0,0,.14-.45,.14-.45,2.89-9.2,7.36-23.92,10.25-33.15,.54-1.53,1.19-4.61,2.18-5.93,2.32-3.16,6.09-4.61,9.86-4.95,0,0,46.69,.82,46.69,.82l46.69,.97c-13.25,.48-33.16,.95-46.69,1.21,0,0-46.69,.87-46.69,.87-1.65,.26-5.21,1.39-6.41,3.4-.24,.34-.33,.65-.45,1.08l-1.01,3.63c-2.7,9.37-6.72,24.28-9.4,33.62-.91,4.46-7.29,5.17-9.16,1.02-.23-.49-.37-1.1-.44-1.59,0,0-.64-3.71-.64-3.71-2.96-17.29-11.45-66.61-14.17-83.14,.43,2.69,4.19,2.93,4.98,.33,.02-.08,0,0,0,0l-.02,.06c-.05,.14-.31,1.17-.37,1.36,0,0-.5,1.81-.5,1.81,0,0-7.95,29.04-7.95,29.04-.35,1.44-1.15,4.15-1.53,5.56-.91,3.13-3.13,5.68-5.67,7.63-2.07,1.81-4.63,2.88-7.42,3.01,0,0-3.8,.05-3.8,.05l-7.52,.1-15.05,.19-7.52,.1c-1.65,.02-1.46-.03-2.32,.29-.69,.28-1.48,.78-1.98,1.24,0,0,.81-1.06,.81-1.06l-10.38,20.04c-1.53,3.12-6.35,2.66-7.28-.65-2.78-8.88-9.87-31.51-12.51-40.11-.03-.05-.56-1.85-.58-1.88,0,0-.03-.09,0,0,1.19,3.31,5.47,2.53,6.09-.16-2.97,13.72-8,36.98-10.96,50.67,0,0-1.48,6.84-1.48,6.84,0,0-.74,3.42-.74,3.42,0,0-.09,.43-.09,.43-.07,.34-.18,.68-.33,1-1.3,2.71-4.57,3.15-6.91,2-1.05-.41-2.71-1.96-2.81-3.46-2.79-20.4-8.64-62.63-11.31-82.59-.04-.5-.31-2.23-.37-2.78-.02-.13,0,.05,.01,.09,.62,1.97,2.82,1.4,3.11,.09-.73,3.07-2.02,8.38-2.77,11.51-2.31,9.59-7.3,30.41-9.57,39.77-.73,4.14-6.8,4.86-8.35,.72-.55-1.52-1.41-4.05-1.96-5.6,0,0-8.46-24.2-8.46-24.2-.11-.39-.68-1.91-.81-2.3,0-.05-.29-.17-.47-.09-.09,.03-.1,.07-.16,.13,0,0-.08,.18-.08,.18l-.16,.37s-.32,.74-.32,.74c-.91,2-5.38,12.51-6.37,14.71-2.21,4.35-6.96,6.91-11.66,6.81-23.04-.39-51.5-.98-74.57-1.6H0Z"/>
  <text class="cls-4" transform="translate(363.15 509.29)"><tspan x="0" y="0">Lab</tspan></text>
  <text class="cls-9" transform="translate(57.58 380.86)"><tspan x="0" y="0">CV</tspan></text>
  <text class="cls-8" transform="translate(263.59 380.86)"><tspan x="0" y="0">med</tspan></text>
</svg>